<svg class="main-svg" xmlns="http://www.w3.org/2000/svg" xmlns:xlink="http://www.w3.org/1999/xlink" width="1000" height="500" style="" viewBox="0 0 1000 500"><rect x="0" y="0" width="1000" height="500" style="fill: rgb(255, 255, 255); fill-opacity: 1;"/><defs id="defs-04b848"><g class="clips"><clipPath id="clip04b848xyplot" class="plotclip"><rect width="840" height="320"/></clipPath><clipPath class="axesclip" id="clip04b848x"><rect x="80" y="0" width="840" height="500"/></clipPath><clipPath class="axesclip" id="clip04b848y"><rect x="0" y="100" width="1000" height="320"/></clipPath><clipPath class="axesclip" id="clip04b848xy"><rect x="80" y="100" width="840" height="320"/></clipPath></g><g class="gradients"/></defs><g class="bglayer"><rect class="bg" x="80" y="100" width="840" height="320" style="fill: rgb(229, 236, 246); fill-opacity: 1; stroke-width: 0;"/></g><g class="layer-below"><g class="imagelayer"/><g class="shapelayer"/></g><g class="cartesianlayer"><g class="subplot xy"><g class="layer-subplot"><g class="shapelayer"/><g class="imagelayer"/></g><g class="gridlayer"><g class="x"><path class="xgrid crisp" transform="translate(108.87,0)" d="M0,100v320" style="stroke: rgb(255, 255, 255); stroke-opacity: 1; stroke-width: 1px;"/><path class="xgrid crisp" transform="translate(192.57999999999998,0)" d="M0,100v320" style="stroke: rgb(255, 255, 255); stroke-opacity: 1; stroke-width: 1px;"/><path class="xgrid crisp" transform="translate(282.06,0)" d="M0,100v320" style="stroke: rgb(255, 255, 255); stroke-opacity: 1; stroke-width: 1px;"/><path class="xgrid crisp" transform="translate(368.66,0)" d="M0,100v320" style="stroke: rgb(255, 255, 255); stroke-opacity: 1; stroke-width: 1px;"/><path class="xgrid crisp" transform="translate(458.14,0)" d="M0,100v320" style="stroke: rgb(255, 255, 255); stroke-opacity: 1; stroke-width: 1px;"/><path class="xgrid crisp" transform="translate(544.74,0)" d="M0,100v320" style="stroke: rgb(255, 255, 255); stroke-opacity: 1; stroke-width: 1px;"/><path class="xgrid crisp" transform="translate(634.23,0)" d="M0,100v320" style="stroke: rgb(255, 255, 255); stroke-opacity: 1; stroke-width: 1px;"/><path class="xgrid crisp" transform="translate(723.71,0)" d="M0,100v320" style="stroke: rgb(255, 255, 255); stroke-opacity: 1; stroke-width: 1px;"/><path class="xgrid crisp" transform="translate(810.31,0)" d="M0,100v320" style="stroke: rgb(255, 255, 255); stroke-opacity: 1; stroke-width: 1px;"/><path class="xgrid crisp" transform="translate(899.79,0)" d="M0,100v320" style="stroke: rgb(255, 255, 255); stroke-opacity: 1; stroke-width: 1px;"/></g><g class="y"><path class="ygrid crisp" transform="translate(0,354.51)" d="M80,0h840" style="stroke: rgb(255, 255, 255); stroke-opacity: 1; stroke-width: 1px;"/><path class="ygrid crisp" transform="translate(0,310.51)" d="M80,0h840" style="stroke: rgb(255, 255, 255); stroke-opacity: 1; stroke-width: 1px;"/><path class="ygrid crisp" transform="translate(0,266.51)" d="M80,0h840" style="stroke: rgb(255, 255, 255); stroke-opacity: 1; stroke-width: 1px;"/><path class="ygrid crisp" transform="translate(0,222.51)" d="M80,0h840" style="stroke: rgb(255, 255, 255); stroke-opacity: 1; stroke-width: 1px;"/><path class="ygrid crisp" transform="translate(0,178.51)" d="M80,0h840" style="stroke: rgb(255, 255, 255); stroke-opacity: 1; stroke-width: 1px;"/><path class="ygrid crisp" transform="translate(0,134.51)" d="M80,0h840" style="stroke: rgb(255, 255, 255); stroke-opacity: 1; stroke-width: 1px;"/></g></g><g class="zerolinelayer"><path class="yzl zl crisp" transform="translate(0,398.5)" d="M80,0h840" style="stroke: rgb(255, 255, 255); stroke-opacity: 1; stroke-width: 2px;"/></g><path class="xlines-below"/><path class="ylines-below"/><g class="overlines-below"/><g class="xaxislayer-below"/><g class="yaxislayer-below"/><g class="overaxes-below"/><g class="plot" transform="translate(80, 100)" clip-path="url('#clip04b848xyplot')"><g class="scatterlayer mlayer"><g class="trace scatter trace0f5078" style="stroke-miterlimit: 2; opacity: 1;"><g class="fills"/><g class="errorbars"/><g class="lines"><path class="js-line" d="M0,298.5L138.56,298.09L141.44,297.7L150.1,296.84L152.99,297.99L155.88,295.28L158.76,294.47L161.65,292.66L164.54,288.62L167.42,284.5L170.31,285.32L176.08,273.82L178.97,275.24L181.86,272.03L184.74,259.14L190.52,255.39L193.4,256.86L196.29,250.09L199.18,240.5L202.06,241.7L204.95,231.65L207.84,228.11L210.72,225.91L213.61,236.5L216.49,232.1L219.38,229.43L222.27,228.07L225.15,222.28L228.04,224.73L230.93,233.92L233.81,239.2L236.7,241.76L239.59,235.6L248.25,226.33L251.13,237.23L254.02,242.01L256.91,235.98L259.79,241.22L262.68,234.05L265.57,224.96L268.45,224.66L271.34,228.54L274.23,238.89L277.11,247.52L280,244.22L282.89,237.25L285.77,233.59L288.66,223.22L291.55,236.9L294.43,244.6L297.32,247.02L300.21,244.47L303.09,243.18L305.98,237.36L308.87,239.36L311.75,243.57L314.64,257.02L317.53,255.72L320.41,248.44L323.3,252.38L326.19,238.42L329.07,242.86L331.96,245.67L334.85,258.64L337.73,250.07L340.62,252.23L343.51,246.79L346.39,242.04L349.28,246.94L352.16,251.87L355.05,254.25L357.94,258.17L360.82,255.55L363.71,257.61L366.6,248.02L369.48,244.93L372.37,246.05L375.26,256.32L378.14,260.3L381.03,251.48L383.92,254.55L386.8,250.68L389.69,243.13L395.46,259.37L398.35,259.94L401.24,258.09L404.12,252.69L407.01,247.45L409.9,243.79L412.78,242.92L415.67,255.88L418.56,254.67L421.44,246.15L427.22,236.48L430.1,229.59L432.99,227.54L435.88,241.07L441.65,219.75L444.54,222.7L450.31,198.79L453.2,205.32L456.08,211.92L458.97,208.99L464.74,185.59L467.63,177.24L470.52,182.87L473.4,197.86L476.29,188.54L479.18,200.28L482.06,166.15L484.95,168.31L490.72,149.53L493.61,166.14L496.49,168.92L499.38,167.65L502.27,151.16L505.15,149.72L508.04,128.27L510.93,140.06L513.81,160.43L516.7,163.66L519.59,162.09L522.47,156.73L525.36,141.6L528.25,146.51L531.13,137.65L534.02,152.25L536.91,177.84L539.79,174L542.68,153.7L545.57,141.59L548.45,149.3L551.34,150.77L557.11,194.37L560,199.84L562.89,172.06L565.77,180.46L568.66,167.27L571.55,170.14L574.43,175.97L577.32,197.03L580.21,189.02L583.09,195.29L585.98,173.08L588.87,184.12L591.75,156.39L594.64,194.17L600.41,219.44L603.3,198.71L606.19,194.36L609.07,201.52L611.96,192.41L614.85,200.79L617.73,222.76L620.62,215.22L623.51,214.39L626.39,199.3L629.28,197.57L632.16,196.84L635.05,197.24L637.94,220.71L640.82,222.57L643.71,204.93L646.6,209.22L649.48,201.91L652.37,188.26L655.26,201.5L658.14,229.98L661.03,245.56L663.92,239.68L666.8,224.68L669.69,218.52L672.58,193.94L678.35,222.17L681.24,223.81L684.12,212.26L687.01,213.68L689.9,200.08L692.78,191.31L695.67,201.54L698.56,218.79L701.44,183.08L704.33,212.73L707.22,213.92L710.1,201.37L712.99,187.2L715.88,199.77L718.76,218.38L721.65,225.2L724.54,205.84L727.42,207.39L730.31,200.01L733.2,178.52L736.08,188.36L738.97,220.48L741.86,211.48L744.74,206.21L747.63,187.76L750.52,174.8L753.4,172.13L756.29,178.29L759.18,200.34L762.06,206.82L764.95,183.12L767.84,167.53L770.72,158.46L773.61,146.34L779.38,192.41L782.27,170.04L788.04,160.4L790.93,140.76L793.81,114.26L796.7,114.3L799.59,164.73L802.47,151.55L805.36,136.52L808.25,126.12L814.02,80L816.91,102.43L819.79,136.6L822.68,113.51L825.57,97.14L828.45,72.28L831.34,30.35L834.23,20.25L837.11,16L840,65.47" style="vector-effect: non-scaling-stroke; fill: none; stroke: rgb(0, 0, 255); stroke-opacity: 1; stroke-width: 2px; opacity: 1;"/></g><g class="points"/><g class="text"/></g><g class="trace scatter trace0f2e31" style="stroke-miterlimit: 2; opacity: 1;"><g class="fills"/><g class="errorbars"/><g class="lines"><path class="js-line" d="M11.55,292.02L25.98,297.58L28.87,298.5L37.53,300.88L46.19,302.62L57.73,303.88L57.73,303.88L66.39,304L77.94,303.06L86.6,301.55L101.03,297.57L101.03,297.57L103.92,296.58L127.01,286.61L138.56,280.62L190.52,252.76L193.4,251.45L207.84,245.65L210.72,244.66L228.04,240.03L230.93,239.49L251.13,237.54L256.91,237.55L274.23,238.89L277.11,239.27L297.32,242.81L308.87,245.16L334.85,249.72L334.85,249.72L337.73,250.07L352.16,251.06L357.94,251.06L369.48,250.24L369.48,250.24L375.26,249.4L389.69,246.02L395.46,244.14L404.12,240.79L404.12,240.79L418.56,233.9L432.99,225.67L432.99,225.67L438.76,222.11L467.63,203.35L505.15,182.59L510.93,180.31L510.93,180.31L522.47,176.72L528.25,175.44L536.91,174.22L548.45,173.9L548.45,173.9L551.34,174.05L565.77,176.13L571.55,177.55L585.98,182.38L585.98,182.38L594.64,185.99L614.85,195.76L620.62,198.71L640.82,208.69L649.48,212.48L663.92,217.63L666.8,218.44L681.24,221.2L681.24,221.2L687.01,221.62L692.78,221.62L704.33,220.28L715.88,217.08L715.88,217.08L718.76,215.99L730.31,210.42L741.86,203.01L759.18,188.67L764.95,183.12L776.49,171.02L788.04,157.8L805.36,136.52L805.36,136.52L816.91,121.79L837.11,96.04" style="vector-effect: non-scaling-stroke; fill: none; stroke: rgb(255, 0, 0); stroke-opacity: 1; stroke-width: 2px; opacity: 1;"/></g><g class="points"/><g class="text"/></g><g class="trace scatter trace18c57e" style="stroke-miterlimit: 2; opacity: 1;"><g class="fills"/><g class="errorbars"/><g class="lines"><path class="js-line" d="M11.55,302.32L640.82,182.91L649.48,181.26L837.11,145.66" style="vector-effect: non-scaling-stroke; fill: none; stroke: rgb(0, 128, 0); stroke-opacity: 1; stroke-width: 2px; opacity: 1;"/></g><g class="points"/><g class="text"/></g></g></g><g class="overplot"/><path class="xlines-above crisp" style="fill: none;" d="M0,0"/><path class="ylines-above crisp" style="fill: none;" d="M0,0"/><g class="overlines-above"/><g class="xaxislayer-above"><g class="xtick"><text text-anchor="middle" x="0" y="435" transform="translate(108.87,0)" style="font-family: 'Open Sans', verdana, arial, sans-serif; font-size: 14px; fill: rgb(42, 63, 95); fill-opacity: 1; white-space: pre;">Feb 2020</text></g><g class="xtick"><text text-anchor="middle" x="0" y="435" transform="translate(192.57999999999998,0)" style="font-family: 'Open Sans', verdana, arial, sans-serif; font-size: 14px; fill: rgb(42, 63, 95); fill-opacity: 1; white-space: pre;">Mar 2020</text></g><g class="xtick"><text text-anchor="middle" x="0" y="435" transform="translate(282.06,0)" style="font-family: 'Open Sans', verdana, arial, sans-serif; font-size: 14px; fill: rgb(42, 63, 95); fill-opacity: 1; white-space: pre;">Apr 2020</text></g><g class="xtick"><text text-anchor="middle" x="0" y="435" transform="translate(368.66,0)" style="font-family: 'Open Sans', verdana, arial, sans-serif; font-size: 14px; fill: rgb(42, 63, 95); fill-opacity: 1; white-space: pre;">May 2020</text></g><g class="xtick"><text text-anchor="middle" x="0" y="435" transform="translate(458.14,0)" style="font-family: 'Open Sans', verdana, arial, sans-serif; font-size: 14px; fill: rgb(42, 63, 95); fill-opacity: 1; white-space: pre;">Jun 2020</text></g><g class="xtick"><text text-anchor="middle" x="0" y="435" transform="translate(544.74,0)" style="font-family: 'Open Sans', verdana, arial, sans-serif; font-size: 14px; fill: rgb(42, 63, 95); fill-opacity: 1; white-space: pre;">Jul 2020</text></g><g class="xtick"><text text-anchor="middle" x="0" y="435" transform="translate(634.23,0)" style="font-family: 'Open Sans', verdana, arial, sans-serif; font-size: 14px; fill: rgb(42, 63, 95); fill-opacity: 1; white-space: pre;">Aug 2020</text></g><g class="xtick"><text text-anchor="middle" x="0" y="435" transform="translate(723.71,0)" style="font-family: 'Open Sans', verdana, arial, sans-serif; font-size: 14px; fill: rgb(42, 63, 95); fill-opacity: 1; white-space: pre;">Sep 2020</text></g><g class="xtick"><text text-anchor="middle" x="0" y="435" transform="translate(810.31,0)" style="font-family: 'Open Sans', verdana, arial, sans-serif; font-size: 14px; fill: rgb(42, 63, 95); fill-opacity: 1; white-space: pre;">Oct 2020</text></g><g class="xtick"><text text-anchor="middle" x="0" y="435" transform="translate(899.79,0)" style="font-family: 'Open Sans', verdana, arial, sans-serif; font-size: 14px; fill: rgb(42, 63, 95); fill-opacity: 1; white-space: pre;">Nov 2020</text></g></g><g class="yaxislayer-above"><g class="ytick"><text text-anchor="end" x="79" y="4.199999999999999" transform="translate(0,398.5)" style="font-family: 'Open Sans', verdana, arial, sans-serif; font-size: 12px; fill: rgb(42, 63, 95); fill-opacity: 1; white-space: pre;">0</text></g><g class="ytick"><text text-anchor="end" x="79" y="4.199999999999999" transform="translate(0,354.51)" style="font-family: 'Open Sans', verdana, arial, sans-serif; font-size: 12px; fill: rgb(42, 63, 95); fill-opacity: 1; white-space: pre;">20k</text></g><g class="ytick"><text text-anchor="end" x="79" y="4.199999999999999" transform="translate(0,310.51)" style="font-family: 'Open Sans', verdana, arial, sans-serif; font-size: 12px; fill: rgb(42, 63, 95); fill-opacity: 1; white-space: pre;">40k</text></g><g class="ytick"><text text-anchor="end" x="79" y="4.199999999999999" transform="translate(0,266.51)" style="font-family: 'Open Sans', verdana, arial, sans-serif; font-size: 12px; fill: rgb(42, 63, 95); fill-opacity: 1; white-space: pre;">60k</text></g><g class="ytick"><text text-anchor="end" x="79" y="4.199999999999999" transform="translate(0,222.51)" style="font-family: 'Open Sans', verdana, arial, sans-serif; font-size: 12px; fill: rgb(42, 63, 95); fill-opacity: 1; white-space: pre;">80k</text></g><g class="ytick"><text text-anchor="end" x="79" y="4.199999999999999" transform="translate(0,178.51)" style="font-family: 'Open Sans', verdana, arial, sans-serif; font-size: 12px; fill: rgb(42, 63, 95); fill-opacity: 1; white-space: pre;">100k</text></g><g class="ytick"><text text-anchor="end" x="79" y="4.199999999999999" transform="translate(0,134.51)" style="font-family: 'Open Sans', verdana, arial, sans-serif; font-size: 12px; fill: rgb(42, 63, 95); fill-opacity: 1; white-space: pre;">120k</text></g></g><g class="overaxes-above"/></g></g><g class="polarlayer"/><g class="ternarylayer"/><g class="geolayer"/><g class="funnelarealayer"/><g class="pielayer"/><g class="treemaplayer"/><g class="sunburstlayer"/><g class="glimages"/><defs id="topdefs-04b848"><g class="clips"/><clipPath id="legend04b848"><rect width="147" height="67" x="0" y="0"/></clipPath></defs><g class="layer-above"><g class="imagelayer"/><g class="shapelayer"/></g><g class="infolayer"><g class="legend" pointer-events="all" transform="translate(88.4, 103.2)"><rect class="bg" shape-rendering="crispEdges" style="stroke: rgb(68, 68, 68); stroke-opacity: 1; fill: rgb(255, 255, 255); fill-opacity: 1; stroke-width: 0px;" width="147" height="67" x="0" y="0"/><g class="scrollbox" transform="translate(0, 0)" clip-path="url('#legend04b848')"><g class="groups"><g class="traces" style="opacity: 1;" transform="translate(0, 14.5)"><text class="legendtext" text-anchor="start" x="40" y="4.680000000000001" style="font-family: 'Open Sans', verdana, arial, sans-serif; font-size: 12px; fill: rgb(42, 63, 95); fill-opacity: 1; white-space: pre;">Confirmed Cases</text><g class="layers" style="opacity: 1;"><g class="legendfill"/><g class="legendlines"><path class="js-line" d="M5,0h30" style="fill: none; stroke: rgb(0, 0, 255); stroke-opacity: 1; stroke-width: 2px;"/></g><g class="legendsymbols"><g class="legendpoints"/></g></g><rect class="legendtoggle" x="0" y="-9.5" width="141.796875" height="19" style="fill: rgb(0, 0, 0); fill-opacity: 0;"/></g><g class="traces" style="opacity: 1;" transform="translate(0, 33.5)"><text class="legendtext" text-anchor="start" x="40" y="4.680000000000001" style="font-family: 'Open Sans', verdana, arial, sans-serif; font-size: 12px; fill: rgb(42, 63, 95); fill-opacity: 1; white-space: pre;">SVM Model</text><g class="layers" style="opacity: 1;"><g class="legendfill"/><g class="legendlines"><path class="js-line" d="M5,0h30" style="fill: none; stroke: rgb(255, 0, 0); stroke-opacity: 1; stroke-width: 2px;"/></g><g class="legendsymbols"><g class="legendpoints"/></g></g><rect class="legendtoggle" x="0" y="-9.5" width="141.796875" height="19" style="fill: rgb(0, 0, 0); fill-opacity: 0;"/></g><g class="traces" style="opacity: 1;" transform="translate(0, 52.5)"><text class="legendtext" text-anchor="start" x="40" y="4.680000000000001" style="font-family: 'Open Sans', verdana, arial, sans-serif; font-size: 12px; fill: rgb(42, 63, 95); fill-opacity: 1; white-space: pre;">LR Model</text><g class="layers" style="opacity: 1;"><g class="legendfill"/><g class="legendlines"><path class="js-line" d="M5,0h30" style="fill: none; stroke: rgb(0, 128, 0); stroke-opacity: 1; stroke-width: 2px;"/></g><g class="legendsymbols"><g class="legendpoints"/></g></g><rect class="legendtoggle" x="0" y="-9.5" width="141.796875" height="19" style="fill: rgb(0, 0, 0); fill-opacity: 0;"/></g></g></g><rect class="scrollbar" rx="20" ry="3" width="0" height="0" style="fill: rgb(128, 139, 164); fill-opacity: 1;" x="0" y="0"/></g><g class="g-gtitle"/><g class="g-xtitle"/><g class="g-ytitle"><text class="ytitle" transform="rotate(-90,24.200000000000003,260)" x="24.200000000000003" y="260" text-anchor="middle" style="font-family: 'Open Sans', verdana, arial, sans-serif; font-size: 14px; fill: rgb(42, 63, 95); opacity: 1; font-weight: normal; white-space: pre;">Number of Cases</text></g></g></svg>