<?xml version="1.0" encoding="utf-8" standalone="no"?>
<!DOCTYPE svg PUBLIC "-//W3C//DTD SVG 1.1//EN"
  "http://www.w3.org/Graphics/SVG/1.1/DTD/svg11.dtd">
<!-- Created with matplotlib (https://matplotlib.org/) -->
<svg height="720pt" version="1.1" viewBox="0 0 1080 720" width="1080pt" xmlns="http://www.w3.org/2000/svg" xmlns:xlink="http://www.w3.org/1999/xlink">
 <metadata>
  <rdf:RDF xmlns:cc="http://creativecommons.org/ns#" xmlns:dc="http://purl.org/dc/elements/1.1/" xmlns:rdf="http://www.w3.org/1999/02/22-rdf-syntax-ns#">
   <cc:Work>
    <dc:type rdf:resource="http://purl.org/dc/dcmitype/StillImage"/>
    <dc:date>2020-11-09T01:14:35.953445</dc:date>
    <dc:format>image/svg+xml</dc:format>
    <dc:creator>
     <cc:Agent>
      <dc:title>Matplotlib v3.3.2, https://matplotlib.org/</dc:title>
     </cc:Agent>
    </dc:creator>
   </cc:Work>
  </rdf:RDF>
 </metadata>
 <defs>
  <style type="text/css">*{stroke-linecap:butt;stroke-linejoin:round;}</style>
 </defs>
 <g id="figure_1">
  <g id="patch_1">
   <path d="M 0 720 
L 1080 720 
L 1080 0 
L 0 0 
z
" style="fill:none;"/>
  </g>
  <g id="axes_1">
   <g id="patch_2">
    <path d="M 135 333.490909 
L 972 333.490909 
L 972 86.4 
L 135 86.4 
z
" style="fill:#ffffff;"/>
   </g>
   <g id="patch_3">
    <path clip-path="url(#p6f74e96c42)" d="M 136.992857 333.490909 
L 152.935714 333.490909 
L 152.935714 333.490909 
L 136.992857 333.490909 
z
" style="fill:#ea96a3;"/>
   </g>
   <g id="patch_4">
    <path clip-path="url(#p6f74e96c42)" d="M 156.921429 333.490909 
L 172.864286 333.490909 
L 172.864286 333.46525 
L 156.921429 333.46525 
z
" style="fill:#ea9797;"/>
   </g>
   <g id="patch_5">
    <path clip-path="url(#p6f74e96c42)" d="M 176.85 333.490909 
L 192.792857 333.490909 
L 192.792857 333.46525 
L 176.85 333.46525 
z
" style="fill:#e89685;"/>
   </g>
   <g id="patch_6">
    <path clip-path="url(#p6f74e96c42)" d="M 196.778571 333.490909 
L 212.721429 333.490909 
L 212.721429 333.490909 
L 196.778571 333.490909 
z
" style="fill:#e4946a;"/>
   </g>
   <g id="patch_7">
    <path clip-path="url(#p6f74e96c42)" d="M 216.707143 333.490909 
L 232.65 333.490909 
L 232.65 333.473803 
L 216.707143 333.473803 
z
" style="fill:#da934e;"/>
   </g>
   <g id="patch_8">
    <path clip-path="url(#p6f74e96c42)" d="M 236.635714 333.490909 
L 252.578571 333.490909 
L 252.578571 333.362615 
L 236.635714 333.362615 
z
" style="fill:#cd974c;"/>
   </g>
   <g id="patch_9">
    <path clip-path="url(#p6f74e96c42)" d="M 256.564286 333.490909 
L 272.507143 333.490909 
L 272.507143 333.148793 
L 256.564286 333.148793 
z
" style="fill:#c29a4b;"/>
   </g>
   <g id="patch_10">
    <path clip-path="url(#p6f74e96c42)" d="M 276.492857 333.490909 
L 292.435714 333.490909 
L 292.435714 331.882963 
L 276.492857 331.882963 
z
" style="fill:#b89c49;"/>
   </g>
   <g id="patch_11">
    <path clip-path="url(#p6f74e96c42)" d="M 296.421429 333.490909 
L 312.364286 333.490909 
L 312.364286 323.082022 
L 296.421429 323.082022 
z
" style="fill:#af9d48;"/>
   </g>
   <g id="patch_12">
    <path clip-path="url(#p6f74e96c42)" d="M 316.35 333.490909 
L 332.292857 333.490909 
L 332.292857 292.342875 
L 316.35 292.342875 
z
" style="fill:#a69f46;"/>
   </g>
   <g id="patch_13">
    <path clip-path="url(#p6f74e96c42)" d="M 336.278571 333.490909 
L 352.221429 333.490909 
L 352.221429 252.443565 
L 336.278571 252.443565 
z
" style="fill:#9ca145;"/>
   </g>
   <g id="patch_14">
    <path clip-path="url(#p6f74e96c42)" d="M 356.207143 333.490909 
L 372.15 333.490909 
L 372.15 260.423427 
L 356.207143 260.423427 
z
" style="fill:#93a446;"/>
   </g>
   <g id="patch_15">
    <path clip-path="url(#p6f74e96c42)" d="M 376.135714 333.490909 
L 392.078571 333.490909 
L 392.078571 236.552264 
L 376.135714 236.552264 
z
" style="fill:#88a746;"/>
   </g>
   <g id="patch_16">
    <path clip-path="url(#p6f74e96c42)" d="M 396.064286 333.490909 
L 412.007143 333.490909 
L 412.007143 227.434866 
L 396.064286 227.434866 
z
" style="fill:#78aa47;"/>
   </g>
   <g id="patch_17">
    <path clip-path="url(#p6f74e96c42)" d="M 415.992857 333.490909 
L 431.935714 333.490909 
L 431.935714 226.827609 
L 415.992857 226.827609 
z
" style="fill:#60ae47;"/>
   </g>
   <g id="patch_18">
    <path clip-path="url(#p6f74e96c42)" d="M 435.921429 333.490909 
L 451.864286 333.490909 
L 451.864286 251.494192 
L 435.921429 251.494192 
z
" style="fill:#48b05e;"/>
   </g>
   <g id="patch_19">
    <path clip-path="url(#p6f74e96c42)" d="M 455.85 333.490909 
L 471.792857 333.490909 
L 471.792857 263.006405 
L 455.85 263.006405 
z
" style="fill:#49af77;"/>
   </g>
   <g id="patch_20">
    <path clip-path="url(#p6f74e96c42)" d="M 475.778571 333.490909 
L 491.721429 333.490909 
L 491.721429 267.000612 
L 475.778571 267.000612 
z
" style="fill:#49ae85;"/>
   </g>
   <g id="patch_21">
    <path clip-path="url(#p6f74e96c42)" d="M 495.707143 333.490909 
L 511.65 333.490909 
L 511.65 278.983235 
L 495.707143 278.983235 
z
" style="fill:#4aad8f;"/>
   </g>
   <g id="patch_22">
    <path clip-path="url(#p6f74e96c42)" d="M 515.635714 333.490909 
L 531.578571 333.490909 
L 531.578571 293.3008 
L 515.635714 293.3008 
z
" style="fill:#4aac97;"/>
   </g>
   <g id="patch_23">
    <path clip-path="url(#p6f74e96c42)" d="M 535.564286 333.490909 
L 551.507143 333.490909 
L 551.507143 305.899232 
L 535.564286 305.899232 
z
" style="fill:#4bac9e;"/>
   </g>
   <g id="patch_24">
    <path clip-path="url(#p6f74e96c42)" d="M 555.492857 333.490909 
L 571.435714 333.490909 
L 571.435714 310.620437 
L 555.492857 310.620437 
z
" style="fill:#4baba4;"/>
   </g>
   <g id="patch_25">
    <path clip-path="url(#p6f74e96c42)" d="M 575.421429 333.490909 
L 591.364286 333.490909 
L 591.364286 315.401511 
L 575.421429 315.401511 
z
" style="fill:#4babaa;"/>
   </g>
   <g id="patch_26">
    <path clip-path="url(#p6f74e96c42)" d="M 595.35 333.490909 
L 611.292857 333.490909 
L 611.292857 314.665961 
L 595.35 314.665961 
z
" style="fill:#4dabb1;"/>
   </g>
   <g id="patch_27">
    <path clip-path="url(#p6f74e96c42)" d="M 615.278571 333.490909 
L 631.221429 333.490909 
L 631.221429 316.778529 
L 615.278571 316.778529 
z
" style="fill:#4eabb8;"/>
   </g>
   <g id="patch_28">
    <path clip-path="url(#p6f74e96c42)" d="M 635.207143 333.490909 
L 651.15 333.490909 
L 651.15 309.371712 
L 635.207143 309.371712 
z
" style="fill:#50acc1;"/>
   </g>
   <g id="patch_29">
    <path clip-path="url(#p6f74e96c42)" d="M 655.135714 333.490909 
L 671.078571 333.490909 
L 671.078571 302.520834 
L 655.135714 302.520834 
z
" style="fill:#52acca;"/>
   </g>
   <g id="patch_30">
    <path clip-path="url(#p6f74e96c42)" d="M 675.064286 333.490909 
L 691.007143 333.490909 
L 691.007143 308.0118 
L 675.064286 308.0118 
z
" style="fill:#55acd7;"/>
   </g>
   <g id="patch_31">
    <path clip-path="url(#p6f74e96c42)" d="M 694.992857 333.490909 
L 710.935714 333.490909 
L 710.935714 311.261905 
L 694.992857 311.261905 
z
" style="fill:#6daee2;"/>
   </g>
   <g id="patch_32">
    <path clip-path="url(#p6f74e96c42)" d="M 714.921429 333.490909 
L 730.864286 333.490909 
L 730.864286 310.936894 
L 714.921429 310.936894 
z
" style="fill:#8baee7;"/>
   </g>
   <g id="patch_33">
    <path clip-path="url(#p6f74e96c42)" d="M 734.85 333.490909 
L 750.792857 333.490909 
L 750.792857 309.431583 
L 734.85 309.431583 
z
" style="fill:#a0adea;"/>
   </g>
   <g id="patch_34">
    <path clip-path="url(#p6f74e96c42)" d="M 754.778571 333.490909 
L 770.721429 333.490909 
L 770.721429 307.224933 
L 754.778571 307.224933 
z
" style="fill:#b0aaeb;"/>
   </g>
   <g id="patch_35">
    <path clip-path="url(#p6f74e96c42)" d="M 774.707143 333.490909 
L 790.65 333.490909 
L 790.65 299.262176 
L 774.707143 299.262176 
z
" style="fill:#bca5ea;"/>
   </g>
   <g id="patch_36">
    <path clip-path="url(#p6f74e96c42)" d="M 794.635714 333.490909 
L 810.578571 333.490909 
L 810.578571 292.864602 
L 794.635714 292.864602 
z
" style="fill:#c79fe9;"/>
   </g>
   <g id="patch_37">
    <path clip-path="url(#p6f74e96c42)" d="M 814.564286 333.490909 
L 830.507143 333.490909 
L 830.507143 272.679742 
L 814.564286 272.679742 
z
" style="fill:#d398e8;"/>
   </g>
   <g id="patch_38">
    <path clip-path="url(#p6f74e96c42)" d="M 834.492857 333.490909 
L 850.435714 333.490909 
L 850.435714 250.715878 
L 834.492857 250.715878 
z
" style="fill:#df8fe7;"/>
   </g>
   <g id="patch_39">
    <path clip-path="url(#p6f74e96c42)" d="M 854.421429 333.490909 
L 870.364286 333.490909 
L 870.364286 221.67876 
L 854.421429 221.67876 
z
" style="fill:#e78ae0;"/>
   </g>
   <g id="patch_40">
    <path clip-path="url(#p6f74e96c42)" d="M 874.35 333.490909 
L 890.292857 333.490909 
L 890.292857 197.482587 
L 874.35 197.482587 
z
" style="fill:#e78dd5;"/>
   </g>
   <g id="patch_41">
    <path clip-path="url(#p6f74e96c42)" d="M 894.278571 333.490909 
L 910.221429 333.490909 
L 910.221429 193.214686 
L 894.278571 193.214686 
z
" style="fill:#e88fca;"/>
   </g>
   <g id="patch_42">
    <path clip-path="url(#p6f74e96c42)" d="M 914.207143 333.490909 
L 930.15 333.490909 
L 930.15 178.939885 
L 914.207143 178.939885 
z
" style="fill:#e891c1;"/>
   </g>
   <g id="patch_43">
    <path clip-path="url(#p6f74e96c42)" d="M 934.135714 333.490909 
L 950.078571 333.490909 
L 950.078571 155.804272 
L 934.135714 155.804272 
z
" style="fill:#e993b8;"/>
   </g>
   <g id="patch_44">
    <path clip-path="url(#p6f74e96c42)" d="M 954.064286 333.490909 
L 970.007143 333.490909 
L 970.007143 98.166234 
L 954.064286 98.166234 
z
" style="fill:#e994af;"/>
   </g>
   <g id="matplotlib.axis_1">
    <g id="xtick_1">
     <g id="line2d_1">
      <defs>
       <path d="M 0 0 
L 0 3.5 
" id="me13e3a9a76" style="stroke:#000000;stroke-width:0.8;"/>
      </defs>
      <g>
       <use style="stroke:#000000;stroke-width:0.8;" x="144.964286" xlink:href="#me13e3a9a76" y="333.490909"/>
      </g>
     </g>
     <g id="text_1">
      <!-- 0 -->
      <g transform="translate(141.783036 348.089347)scale(0.1 -0.1)">
       <defs>
        <path d="M 31.78125 66.40625 
Q 24.171875 66.40625 20.328125 58.90625 
Q 16.5 51.421875 16.5 36.375 
Q 16.5 21.390625 20.328125 13.890625 
Q 24.171875 6.390625 31.78125 6.390625 
Q 39.453125 6.390625 43.28125 13.890625 
Q 47.125 21.390625 47.125 36.375 
Q 47.125 51.421875 43.28125 58.90625 
Q 39.453125 66.40625 31.78125 66.40625 
z
M 31.78125 74.21875 
Q 44.046875 74.21875 50.515625 64.515625 
Q 56.984375 54.828125 56.984375 36.375 
Q 56.984375 17.96875 50.515625 8.265625 
Q 44.046875 -1.421875 31.78125 -1.421875 
Q 19.53125 -1.421875 13.0625 8.265625 
Q 6.59375 17.96875 6.59375 36.375 
Q 6.59375 54.828125 13.0625 64.515625 
Q 19.53125 74.21875 31.78125 74.21875 
z
" id="DejaVuSans-48"/>
       </defs>
       <use xlink:href="#DejaVuSans-48"/>
      </g>
     </g>
    </g>
    <g id="xtick_2">
     <g id="line2d_2">
      <g>
       <use style="stroke:#000000;stroke-width:0.8;" x="244.607143" xlink:href="#me13e3a9a76" y="333.490909"/>
      </g>
     </g>
     <g id="text_2">
      <!-- 5 -->
      <g transform="translate(241.425893 348.089347)scale(0.1 -0.1)">
       <defs>
        <path d="M 10.796875 72.90625 
L 49.515625 72.90625 
L 49.515625 64.59375 
L 19.828125 64.59375 
L 19.828125 46.734375 
Q 21.96875 47.46875 24.109375 47.828125 
Q 26.265625 48.1875 28.421875 48.1875 
Q 40.625 48.1875 47.75 41.5 
Q 54.890625 34.8125 54.890625 23.390625 
Q 54.890625 11.625 47.5625 5.09375 
Q 40.234375 -1.421875 26.90625 -1.421875 
Q 22.3125 -1.421875 17.546875 -0.640625 
Q 12.796875 0.140625 7.71875 1.703125 
L 7.71875 11.625 
Q 12.109375 9.234375 16.796875 8.0625 
Q 21.484375 6.890625 26.703125 6.890625 
Q 35.15625 6.890625 40.078125 11.328125 
Q 45.015625 15.765625 45.015625 23.390625 
Q 45.015625 31 40.078125 35.4375 
Q 35.15625 39.890625 26.703125 39.890625 
Q 22.75 39.890625 18.8125 39.015625 
Q 14.890625 38.140625 10.796875 36.28125 
z
" id="DejaVuSans-53"/>
       </defs>
       <use xlink:href="#DejaVuSans-53"/>
      </g>
     </g>
    </g>
    <g id="xtick_3">
     <g id="line2d_3">
      <g>
       <use style="stroke:#000000;stroke-width:0.8;" x="344.25" xlink:href="#me13e3a9a76" y="333.490909"/>
      </g>
     </g>
     <g id="text_3">
      <!-- 10 -->
      <g transform="translate(337.8875 348.089347)scale(0.1 -0.1)">
       <defs>
        <path d="M 12.40625 8.296875 
L 28.515625 8.296875 
L 28.515625 63.921875 
L 10.984375 60.40625 
L 10.984375 69.390625 
L 28.421875 72.90625 
L 38.28125 72.90625 
L 38.28125 8.296875 
L 54.390625 8.296875 
L 54.390625 0 
L 12.40625 0 
z
" id="DejaVuSans-49"/>
       </defs>
       <use xlink:href="#DejaVuSans-49"/>
       <use x="63.623047" xlink:href="#DejaVuSans-48"/>
      </g>
     </g>
    </g>
    <g id="xtick_4">
     <g id="line2d_4">
      <g>
       <use style="stroke:#000000;stroke-width:0.8;" x="443.892857" xlink:href="#me13e3a9a76" y="333.490909"/>
      </g>
     </g>
     <g id="text_4">
      <!-- 15 -->
      <g transform="translate(437.530357 348.089347)scale(0.1 -0.1)">
       <use xlink:href="#DejaVuSans-49"/>
       <use x="63.623047" xlink:href="#DejaVuSans-53"/>
      </g>
     </g>
    </g>
    <g id="xtick_5">
     <g id="line2d_5">
      <g>
       <use style="stroke:#000000;stroke-width:0.8;" x="543.535714" xlink:href="#me13e3a9a76" y="333.490909"/>
      </g>
     </g>
     <g id="text_5">
      <!-- 20 -->
      <g transform="translate(537.173214 348.089347)scale(0.1 -0.1)">
       <defs>
        <path d="M 19.1875 8.296875 
L 53.609375 8.296875 
L 53.609375 0 
L 7.328125 0 
L 7.328125 8.296875 
Q 12.9375 14.109375 22.625 23.890625 
Q 32.328125 33.6875 34.8125 36.53125 
Q 39.546875 41.84375 41.421875 45.53125 
Q 43.3125 49.21875 43.3125 52.78125 
Q 43.3125 58.59375 39.234375 62.25 
Q 35.15625 65.921875 28.609375 65.921875 
Q 23.96875 65.921875 18.8125 64.3125 
Q 13.671875 62.703125 7.8125 59.421875 
L 7.8125 69.390625 
Q 13.765625 71.78125 18.9375 73 
Q 24.125 74.21875 28.421875 74.21875 
Q 39.75 74.21875 46.484375 68.546875 
Q 53.21875 62.890625 53.21875 53.421875 
Q 53.21875 48.921875 51.53125 44.890625 
Q 49.859375 40.875 45.40625 35.40625 
Q 44.1875 33.984375 37.640625 27.21875 
Q 31.109375 20.453125 19.1875 8.296875 
z
" id="DejaVuSans-50"/>
       </defs>
       <use xlink:href="#DejaVuSans-50"/>
       <use x="63.623047" xlink:href="#DejaVuSans-48"/>
      </g>
     </g>
    </g>
    <g id="xtick_6">
     <g id="line2d_6">
      <g>
       <use style="stroke:#000000;stroke-width:0.8;" x="643.178571" xlink:href="#me13e3a9a76" y="333.490909"/>
      </g>
     </g>
     <g id="text_6">
      <!-- 25 -->
      <g transform="translate(636.816071 348.089347)scale(0.1 -0.1)">
       <use xlink:href="#DejaVuSans-50"/>
       <use x="63.623047" xlink:href="#DejaVuSans-53"/>
      </g>
     </g>
    </g>
    <g id="xtick_7">
     <g id="line2d_7">
      <g>
       <use style="stroke:#000000;stroke-width:0.8;" x="742.821429" xlink:href="#me13e3a9a76" y="333.490909"/>
      </g>
     </g>
     <g id="text_7">
      <!-- 30 -->
      <g transform="translate(736.458929 348.089347)scale(0.1 -0.1)">
       <defs>
        <path d="M 40.578125 39.3125 
Q 47.65625 37.796875 51.625 33 
Q 55.609375 28.21875 55.609375 21.1875 
Q 55.609375 10.40625 48.1875 4.484375 
Q 40.765625 -1.421875 27.09375 -1.421875 
Q 22.515625 -1.421875 17.65625 -0.515625 
Q 12.796875 0.390625 7.625 2.203125 
L 7.625 11.71875 
Q 11.71875 9.328125 16.59375 8.109375 
Q 21.484375 6.890625 26.8125 6.890625 
Q 36.078125 6.890625 40.9375 10.546875 
Q 45.796875 14.203125 45.796875 21.1875 
Q 45.796875 27.640625 41.28125 31.265625 
Q 36.765625 34.90625 28.71875 34.90625 
L 20.21875 34.90625 
L 20.21875 43.015625 
L 29.109375 43.015625 
Q 36.375 43.015625 40.234375 45.921875 
Q 44.09375 48.828125 44.09375 54.296875 
Q 44.09375 59.90625 40.109375 62.90625 
Q 36.140625 65.921875 28.71875 65.921875 
Q 24.65625 65.921875 20.015625 65.03125 
Q 15.375 64.15625 9.8125 62.3125 
L 9.8125 71.09375 
Q 15.4375 72.65625 20.34375 73.4375 
Q 25.25 74.21875 29.59375 74.21875 
Q 40.828125 74.21875 47.359375 69.109375 
Q 53.90625 64.015625 53.90625 55.328125 
Q 53.90625 49.265625 50.4375 45.09375 
Q 46.96875 40.921875 40.578125 39.3125 
z
" id="DejaVuSans-51"/>
       </defs>
       <use xlink:href="#DejaVuSans-51"/>
       <use x="63.623047" xlink:href="#DejaVuSans-48"/>
      </g>
     </g>
    </g>
    <g id="xtick_8">
     <g id="line2d_8">
      <g>
       <use style="stroke:#000000;stroke-width:0.8;" x="842.464286" xlink:href="#me13e3a9a76" y="333.490909"/>
      </g>
     </g>
     <g id="text_8">
      <!-- 35 -->
      <g transform="translate(836.101786 348.089347)scale(0.1 -0.1)">
       <use xlink:href="#DejaVuSans-51"/>
       <use x="63.623047" xlink:href="#DejaVuSans-53"/>
      </g>
     </g>
    </g>
    <g id="xtick_9">
     <g id="line2d_9">
      <g>
       <use style="stroke:#000000;stroke-width:0.8;" x="942.107143" xlink:href="#me13e3a9a76" y="333.490909"/>
      </g>
     </g>
     <g id="text_9">
      <!-- 40 -->
      <g transform="translate(935.744643 348.089347)scale(0.1 -0.1)">
       <defs>
        <path d="M 37.796875 64.3125 
L 12.890625 25.390625 
L 37.796875 25.390625 
z
M 35.203125 72.90625 
L 47.609375 72.90625 
L 47.609375 25.390625 
L 58.015625 25.390625 
L 58.015625 17.1875 
L 47.609375 17.1875 
L 47.609375 0 
L 37.796875 0 
L 37.796875 17.1875 
L 4.890625 17.1875 
L 4.890625 26.703125 
z
" id="DejaVuSans-52"/>
       </defs>
       <use xlink:href="#DejaVuSans-52"/>
       <use x="63.623047" xlink:href="#DejaVuSans-48"/>
      </g>
     </g>
    </g>
    <g id="text_10">
     <!-- Year Week Number -->
     <g transform="translate(505.95 361.767472)scale(0.1 -0.1)">
      <defs>
       <path d="M -0.203125 72.90625 
L 10.40625 72.90625 
L 30.609375 42.921875 
L 50.6875 72.90625 
L 61.28125 72.90625 
L 35.5 34.71875 
L 35.5 0 
L 25.59375 0 
L 25.59375 34.71875 
z
" id="DejaVuSans-89"/>
       <path d="M 56.203125 29.59375 
L 56.203125 25.203125 
L 14.890625 25.203125 
Q 15.484375 15.921875 20.484375 11.0625 
Q 25.484375 6.203125 34.421875 6.203125 
Q 39.59375 6.203125 44.453125 7.46875 
Q 49.3125 8.734375 54.109375 11.28125 
L 54.109375 2.78125 
Q 49.265625 0.734375 44.1875 -0.34375 
Q 39.109375 -1.421875 33.890625 -1.421875 
Q 20.796875 -1.421875 13.15625 6.1875 
Q 5.515625 13.8125 5.515625 26.8125 
Q 5.515625 40.234375 12.765625 48.109375 
Q 20.015625 56 32.328125 56 
Q 43.359375 56 49.78125 48.890625 
Q 56.203125 41.796875 56.203125 29.59375 
z
M 47.21875 32.234375 
Q 47.125 39.59375 43.09375 43.984375 
Q 39.0625 48.390625 32.421875 48.390625 
Q 24.90625 48.390625 20.390625 44.140625 
Q 15.875 39.890625 15.1875 32.171875 
z
" id="DejaVuSans-101"/>
       <path d="M 34.28125 27.484375 
Q 23.390625 27.484375 19.1875 25 
Q 14.984375 22.515625 14.984375 16.5 
Q 14.984375 11.71875 18.140625 8.90625 
Q 21.296875 6.109375 26.703125 6.109375 
Q 34.1875 6.109375 38.703125 11.40625 
Q 43.21875 16.703125 43.21875 25.484375 
L 43.21875 27.484375 
z
M 52.203125 31.203125 
L 52.203125 0 
L 43.21875 0 
L 43.21875 8.296875 
Q 40.140625 3.328125 35.546875 0.953125 
Q 30.953125 -1.421875 24.3125 -1.421875 
Q 15.921875 -1.421875 10.953125 3.296875 
Q 6 8.015625 6 15.921875 
Q 6 25.140625 12.171875 29.828125 
Q 18.359375 34.515625 30.609375 34.515625 
L 43.21875 34.515625 
L 43.21875 35.40625 
Q 43.21875 41.609375 39.140625 45 
Q 35.0625 48.390625 27.6875 48.390625 
Q 23 48.390625 18.546875 47.265625 
Q 14.109375 46.140625 10.015625 43.890625 
L 10.015625 52.203125 
Q 14.9375 54.109375 19.578125 55.046875 
Q 24.21875 56 28.609375 56 
Q 40.484375 56 46.34375 49.84375 
Q 52.203125 43.703125 52.203125 31.203125 
z
" id="DejaVuSans-97"/>
       <path d="M 41.109375 46.296875 
Q 39.59375 47.171875 37.8125 47.578125 
Q 36.03125 48 33.890625 48 
Q 26.265625 48 22.1875 43.046875 
Q 18.109375 38.09375 18.109375 28.8125 
L 18.109375 0 
L 9.078125 0 
L 9.078125 54.6875 
L 18.109375 54.6875 
L 18.109375 46.1875 
Q 20.953125 51.171875 25.484375 53.578125 
Q 30.03125 56 36.53125 56 
Q 37.453125 56 38.578125 55.875 
Q 39.703125 55.765625 41.0625 55.515625 
z
" id="DejaVuSans-114"/>
       <path id="DejaVuSans-32"/>
       <path d="M 3.328125 72.90625 
L 13.28125 72.90625 
L 28.609375 11.28125 
L 43.890625 72.90625 
L 54.984375 72.90625 
L 70.3125 11.28125 
L 85.59375 72.90625 
L 95.609375 72.90625 
L 77.296875 0 
L 64.890625 0 
L 49.515625 63.28125 
L 33.984375 0 
L 21.578125 0 
z
" id="DejaVuSans-87"/>
       <path d="M 9.078125 75.984375 
L 18.109375 75.984375 
L 18.109375 31.109375 
L 44.921875 54.6875 
L 56.390625 54.6875 
L 27.390625 29.109375 
L 57.625 0 
L 45.90625 0 
L 18.109375 26.703125 
L 18.109375 0 
L 9.078125 0 
z
" id="DejaVuSans-107"/>
       <path d="M 9.8125 72.90625 
L 23.09375 72.90625 
L 55.421875 11.921875 
L 55.421875 72.90625 
L 64.984375 72.90625 
L 64.984375 0 
L 51.703125 0 
L 19.390625 60.984375 
L 19.390625 0 
L 9.8125 0 
z
" id="DejaVuSans-78"/>
       <path d="M 8.5 21.578125 
L 8.5 54.6875 
L 17.484375 54.6875 
L 17.484375 21.921875 
Q 17.484375 14.15625 20.5 10.265625 
Q 23.53125 6.390625 29.59375 6.390625 
Q 36.859375 6.390625 41.078125 11.03125 
Q 45.3125 15.671875 45.3125 23.6875 
L 45.3125 54.6875 
L 54.296875 54.6875 
L 54.296875 0 
L 45.3125 0 
L 45.3125 8.40625 
Q 42.046875 3.421875 37.71875 1 
Q 33.40625 -1.421875 27.6875 -1.421875 
Q 18.265625 -1.421875 13.375 4.4375 
Q 8.5 10.296875 8.5 21.578125 
z
M 31.109375 56 
z
" id="DejaVuSans-117"/>
       <path d="M 52 44.1875 
Q 55.375 50.25 60.0625 53.125 
Q 64.75 56 71.09375 56 
Q 79.640625 56 84.28125 50.015625 
Q 88.921875 44.046875 88.921875 33.015625 
L 88.921875 0 
L 79.890625 0 
L 79.890625 32.71875 
Q 79.890625 40.578125 77.09375 44.375 
Q 74.3125 48.1875 68.609375 48.1875 
Q 61.625 48.1875 57.5625 43.546875 
Q 53.515625 38.921875 53.515625 30.90625 
L 53.515625 0 
L 44.484375 0 
L 44.484375 32.71875 
Q 44.484375 40.625 41.703125 44.40625 
Q 38.921875 48.1875 33.109375 48.1875 
Q 26.21875 48.1875 22.15625 43.53125 
Q 18.109375 38.875 18.109375 30.90625 
L 18.109375 0 
L 9.078125 0 
L 9.078125 54.6875 
L 18.109375 54.6875 
L 18.109375 46.1875 
Q 21.1875 51.21875 25.484375 53.609375 
Q 29.78125 56 35.6875 56 
Q 41.65625 56 45.828125 52.96875 
Q 50 49.953125 52 44.1875 
z
" id="DejaVuSans-109"/>
       <path d="M 48.6875 27.296875 
Q 48.6875 37.203125 44.609375 42.84375 
Q 40.53125 48.484375 33.40625 48.484375 
Q 26.265625 48.484375 22.1875 42.84375 
Q 18.109375 37.203125 18.109375 27.296875 
Q 18.109375 17.390625 22.1875 11.75 
Q 26.265625 6.109375 33.40625 6.109375 
Q 40.53125 6.109375 44.609375 11.75 
Q 48.6875 17.390625 48.6875 27.296875 
z
M 18.109375 46.390625 
Q 20.953125 51.265625 25.265625 53.625 
Q 29.59375 56 35.59375 56 
Q 45.5625 56 51.78125 48.09375 
Q 58.015625 40.1875 58.015625 27.296875 
Q 58.015625 14.40625 51.78125 6.484375 
Q 45.5625 -1.421875 35.59375 -1.421875 
Q 29.59375 -1.421875 25.265625 0.953125 
Q 20.953125 3.328125 18.109375 8.203125 
L 18.109375 0 
L 9.078125 0 
L 9.078125 75.984375 
L 18.109375 75.984375 
z
" id="DejaVuSans-98"/>
      </defs>
      <use xlink:href="#DejaVuSans-89"/>
      <use x="47.833984" xlink:href="#DejaVuSans-101"/>
      <use x="109.357422" xlink:href="#DejaVuSans-97"/>
      <use x="170.636719" xlink:href="#DejaVuSans-114"/>
      <use x="211.75" xlink:href="#DejaVuSans-32"/>
      <use x="243.537109" xlink:href="#DejaVuSans-87"/>
      <use x="336.539062" xlink:href="#DejaVuSans-101"/>
      <use x="398.0625" xlink:href="#DejaVuSans-101"/>
      <use x="459.585938" xlink:href="#DejaVuSans-107"/>
      <use x="517.496094" xlink:href="#DejaVuSans-32"/>
      <use x="549.283203" xlink:href="#DejaVuSans-78"/>
      <use x="624.087891" xlink:href="#DejaVuSans-117"/>
      <use x="687.466797" xlink:href="#DejaVuSans-109"/>
      <use x="784.878906" xlink:href="#DejaVuSans-98"/>
      <use x="848.355469" xlink:href="#DejaVuSans-101"/>
      <use x="909.878906" xlink:href="#DejaVuSans-114"/>
     </g>
    </g>
   </g>
   <g id="matplotlib.axis_2">
    <g id="ytick_1">
     <g id="line2d_10">
      <defs>
       <path d="M 0 0 
L -3.5 0 
" id="m2c27d39de0" style="stroke:#000000;stroke-width:0.8;"/>
      </defs>
      <g>
       <use style="stroke:#000000;stroke-width:0.8;" x="135" xlink:href="#m2c27d39de0" y="333.490909"/>
      </g>
     </g>
     <g id="text_11">
      <!-- 0 -->
      <g transform="translate(121.6375 337.290128)scale(0.1 -0.1)">
       <use xlink:href="#DejaVuSans-48"/>
      </g>
     </g>
    </g>
    <g id="ytick_2">
     <g id="line2d_11">
      <g>
       <use style="stroke:#000000;stroke-width:0.8;" x="135" xlink:href="#m2c27d39de0" y="290.726376"/>
      </g>
     </g>
     <g id="text_12">
      <!-- 5000 -->
      <g transform="translate(102.55 294.525594)scale(0.1 -0.1)">
       <use xlink:href="#DejaVuSans-53"/>
       <use x="63.623047" xlink:href="#DejaVuSans-48"/>
       <use x="127.246094" xlink:href="#DejaVuSans-48"/>
       <use x="190.869141" xlink:href="#DejaVuSans-48"/>
      </g>
     </g>
    </g>
    <g id="ytick_3">
     <g id="line2d_12">
      <g>
       <use style="stroke:#000000;stroke-width:0.8;" x="135" xlink:href="#m2c27d39de0" y="247.961842"/>
      </g>
     </g>
     <g id="text_13">
      <!-- 10000 -->
      <g transform="translate(96.1875 251.761061)scale(0.1 -0.1)">
       <use xlink:href="#DejaVuSans-49"/>
       <use x="63.623047" xlink:href="#DejaVuSans-48"/>
       <use x="127.246094" xlink:href="#DejaVuSans-48"/>
       <use x="190.869141" xlink:href="#DejaVuSans-48"/>
       <use x="254.492188" xlink:href="#DejaVuSans-48"/>
      </g>
     </g>
    </g>
    <g id="ytick_4">
     <g id="line2d_13">
      <g>
       <use style="stroke:#000000;stroke-width:0.8;" x="135" xlink:href="#m2c27d39de0" y="205.197308"/>
      </g>
     </g>
     <g id="text_14">
      <!-- 15000 -->
      <g transform="translate(96.1875 208.996527)scale(0.1 -0.1)">
       <use xlink:href="#DejaVuSans-49"/>
       <use x="63.623047" xlink:href="#DejaVuSans-53"/>
       <use x="127.246094" xlink:href="#DejaVuSans-48"/>
       <use x="190.869141" xlink:href="#DejaVuSans-48"/>
       <use x="254.492188" xlink:href="#DejaVuSans-48"/>
      </g>
     </g>
    </g>
    <g id="ytick_5">
     <g id="line2d_14">
      <g>
       <use style="stroke:#000000;stroke-width:0.8;" x="135" xlink:href="#m2c27d39de0" y="162.432775"/>
      </g>
     </g>
     <g id="text_15">
      <!-- 20000 -->
      <g transform="translate(96.1875 166.231994)scale(0.1 -0.1)">
       <use xlink:href="#DejaVuSans-50"/>
       <use x="63.623047" xlink:href="#DejaVuSans-48"/>
       <use x="127.246094" xlink:href="#DejaVuSans-48"/>
       <use x="190.869141" xlink:href="#DejaVuSans-48"/>
       <use x="254.492188" xlink:href="#DejaVuSans-48"/>
      </g>
     </g>
    </g>
    <g id="ytick_6">
     <g id="line2d_15">
      <g>
       <use style="stroke:#000000;stroke-width:0.8;" x="135" xlink:href="#m2c27d39de0" y="119.668241"/>
      </g>
     </g>
     <g id="text_16">
      <!-- 25000 -->
      <g transform="translate(96.1875 123.46746)scale(0.1 -0.1)">
       <use xlink:href="#DejaVuSans-50"/>
       <use x="63.623047" xlink:href="#DejaVuSans-53"/>
       <use x="127.246094" xlink:href="#DejaVuSans-48"/>
       <use x="190.869141" xlink:href="#DejaVuSans-48"/>
       <use x="254.492188" xlink:href="#DejaVuSans-48"/>
      </g>
     </g>
    </g>
    <g id="text_17">
     <!-- Number Of Confirmed Cases -->
     <g transform="translate(90.107812 281.293892)rotate(-90)scale(0.1 -0.1)">
      <defs>
       <path d="M 39.40625 66.21875 
Q 28.65625 66.21875 22.328125 58.203125 
Q 16.015625 50.203125 16.015625 36.375 
Q 16.015625 22.609375 22.328125 14.59375 
Q 28.65625 6.59375 39.40625 6.59375 
Q 50.140625 6.59375 56.421875 14.59375 
Q 62.703125 22.609375 62.703125 36.375 
Q 62.703125 50.203125 56.421875 58.203125 
Q 50.140625 66.21875 39.40625 66.21875 
z
M 39.40625 74.21875 
Q 54.734375 74.21875 63.90625 63.9375 
Q 73.09375 53.65625 73.09375 36.375 
Q 73.09375 19.140625 63.90625 8.859375 
Q 54.734375 -1.421875 39.40625 -1.421875 
Q 24.03125 -1.421875 14.8125 8.828125 
Q 5.609375 19.09375 5.609375 36.375 
Q 5.609375 53.65625 14.8125 63.9375 
Q 24.03125 74.21875 39.40625 74.21875 
z
" id="DejaVuSans-79"/>
       <path d="M 37.109375 75.984375 
L 37.109375 68.5 
L 28.515625 68.5 
Q 23.6875 68.5 21.796875 66.546875 
Q 19.921875 64.59375 19.921875 59.515625 
L 19.921875 54.6875 
L 34.71875 54.6875 
L 34.71875 47.703125 
L 19.921875 47.703125 
L 19.921875 0 
L 10.890625 0 
L 10.890625 47.703125 
L 2.296875 47.703125 
L 2.296875 54.6875 
L 10.890625 54.6875 
L 10.890625 58.5 
Q 10.890625 67.625 15.140625 71.796875 
Q 19.390625 75.984375 28.609375 75.984375 
z
" id="DejaVuSans-102"/>
       <path d="M 64.40625 67.28125 
L 64.40625 56.890625 
Q 59.421875 61.53125 53.78125 63.8125 
Q 48.140625 66.109375 41.796875 66.109375 
Q 29.296875 66.109375 22.65625 58.46875 
Q 16.015625 50.828125 16.015625 36.375 
Q 16.015625 21.96875 22.65625 14.328125 
Q 29.296875 6.6875 41.796875 6.6875 
Q 48.140625 6.6875 53.78125 8.984375 
Q 59.421875 11.28125 64.40625 15.921875 
L 64.40625 5.609375 
Q 59.234375 2.09375 53.4375 0.328125 
Q 47.65625 -1.421875 41.21875 -1.421875 
Q 24.65625 -1.421875 15.125 8.703125 
Q 5.609375 18.84375 5.609375 36.375 
Q 5.609375 53.953125 15.125 64.078125 
Q 24.65625 74.21875 41.21875 74.21875 
Q 47.75 74.21875 53.53125 72.484375 
Q 59.328125 70.75 64.40625 67.28125 
z
" id="DejaVuSans-67"/>
       <path d="M 30.609375 48.390625 
Q 23.390625 48.390625 19.1875 42.75 
Q 14.984375 37.109375 14.984375 27.296875 
Q 14.984375 17.484375 19.15625 11.84375 
Q 23.34375 6.203125 30.609375 6.203125 
Q 37.796875 6.203125 41.984375 11.859375 
Q 46.1875 17.53125 46.1875 27.296875 
Q 46.1875 37.015625 41.984375 42.703125 
Q 37.796875 48.390625 30.609375 48.390625 
z
M 30.609375 56 
Q 42.328125 56 49.015625 48.375 
Q 55.71875 40.765625 55.71875 27.296875 
Q 55.71875 13.875 49.015625 6.21875 
Q 42.328125 -1.421875 30.609375 -1.421875 
Q 18.84375 -1.421875 12.171875 6.21875 
Q 5.515625 13.875 5.515625 27.296875 
Q 5.515625 40.765625 12.171875 48.375 
Q 18.84375 56 30.609375 56 
z
" id="DejaVuSans-111"/>
       <path d="M 54.890625 33.015625 
L 54.890625 0 
L 45.90625 0 
L 45.90625 32.71875 
Q 45.90625 40.484375 42.875 44.328125 
Q 39.84375 48.1875 33.796875 48.1875 
Q 26.515625 48.1875 22.3125 43.546875 
Q 18.109375 38.921875 18.109375 30.90625 
L 18.109375 0 
L 9.078125 0 
L 9.078125 54.6875 
L 18.109375 54.6875 
L 18.109375 46.1875 
Q 21.34375 51.125 25.703125 53.5625 
Q 30.078125 56 35.796875 56 
Q 45.21875 56 50.046875 50.171875 
Q 54.890625 44.34375 54.890625 33.015625 
z
" id="DejaVuSans-110"/>
       <path d="M 9.421875 54.6875 
L 18.40625 54.6875 
L 18.40625 0 
L 9.421875 0 
z
M 9.421875 75.984375 
L 18.40625 75.984375 
L 18.40625 64.59375 
L 9.421875 64.59375 
z
" id="DejaVuSans-105"/>
       <path d="M 45.40625 46.390625 
L 45.40625 75.984375 
L 54.390625 75.984375 
L 54.390625 0 
L 45.40625 0 
L 45.40625 8.203125 
Q 42.578125 3.328125 38.25 0.953125 
Q 33.9375 -1.421875 27.875 -1.421875 
Q 17.96875 -1.421875 11.734375 6.484375 
Q 5.515625 14.40625 5.515625 27.296875 
Q 5.515625 40.1875 11.734375 48.09375 
Q 17.96875 56 27.875 56 
Q 33.9375 56 38.25 53.625 
Q 42.578125 51.265625 45.40625 46.390625 
z
M 14.796875 27.296875 
Q 14.796875 17.390625 18.875 11.75 
Q 22.953125 6.109375 30.078125 6.109375 
Q 37.203125 6.109375 41.296875 11.75 
Q 45.40625 17.390625 45.40625 27.296875 
Q 45.40625 37.203125 41.296875 42.84375 
Q 37.203125 48.484375 30.078125 48.484375 
Q 22.953125 48.484375 18.875 42.84375 
Q 14.796875 37.203125 14.796875 27.296875 
z
" id="DejaVuSans-100"/>
       <path d="M 44.28125 53.078125 
L 44.28125 44.578125 
Q 40.484375 46.53125 36.375 47.5 
Q 32.28125 48.484375 27.875 48.484375 
Q 21.1875 48.484375 17.84375 46.4375 
Q 14.5 44.390625 14.5 40.28125 
Q 14.5 37.15625 16.890625 35.375 
Q 19.28125 33.59375 26.515625 31.984375 
L 29.59375 31.296875 
Q 39.15625 29.25 43.1875 25.515625 
Q 47.21875 21.78125 47.21875 15.09375 
Q 47.21875 7.46875 41.1875 3.015625 
Q 35.15625 -1.421875 24.609375 -1.421875 
Q 20.21875 -1.421875 15.453125 -0.5625 
Q 10.6875 0.296875 5.421875 2 
L 5.421875 11.28125 
Q 10.40625 8.6875 15.234375 7.390625 
Q 20.0625 6.109375 24.8125 6.109375 
Q 31.15625 6.109375 34.5625 8.28125 
Q 37.984375 10.453125 37.984375 14.40625 
Q 37.984375 18.0625 35.515625 20.015625 
Q 33.0625 21.96875 24.703125 23.78125 
L 21.578125 24.515625 
Q 13.234375 26.265625 9.515625 29.90625 
Q 5.8125 33.546875 5.8125 39.890625 
Q 5.8125 47.609375 11.28125 51.796875 
Q 16.75 56 26.8125 56 
Q 31.78125 56 36.171875 55.265625 
Q 40.578125 54.546875 44.28125 53.078125 
z
" id="DejaVuSans-115"/>
      </defs>
      <use xlink:href="#DejaVuSans-78"/>
      <use x="74.804688" xlink:href="#DejaVuSans-117"/>
      <use x="138.183594" xlink:href="#DejaVuSans-109"/>
      <use x="235.595703" xlink:href="#DejaVuSans-98"/>
      <use x="299.072266" xlink:href="#DejaVuSans-101"/>
      <use x="360.595703" xlink:href="#DejaVuSans-114"/>
      <use x="401.708984" xlink:href="#DejaVuSans-32"/>
      <use x="433.496094" xlink:href="#DejaVuSans-79"/>
      <use x="512.207031" xlink:href="#DejaVuSans-102"/>
      <use x="547.412109" xlink:href="#DejaVuSans-32"/>
      <use x="579.199219" xlink:href="#DejaVuSans-67"/>
      <use x="649.023438" xlink:href="#DejaVuSans-111"/>
      <use x="710.205078" xlink:href="#DejaVuSans-110"/>
      <use x="773.583984" xlink:href="#DejaVuSans-102"/>
      <use x="808.789062" xlink:href="#DejaVuSans-105"/>
      <use x="836.572266" xlink:href="#DejaVuSans-114"/>
      <use x="875.935547" xlink:href="#DejaVuSans-109"/>
      <use x="973.347656" xlink:href="#DejaVuSans-101"/>
      <use x="1034.871094" xlink:href="#DejaVuSans-100"/>
      <use x="1098.347656" xlink:href="#DejaVuSans-32"/>
      <use x="1130.134766" xlink:href="#DejaVuSans-67"/>
      <use x="1199.958984" xlink:href="#DejaVuSans-97"/>
      <use x="1261.238281" xlink:href="#DejaVuSans-115"/>
      <use x="1313.337891" xlink:href="#DejaVuSans-101"/>
      <use x="1374.861328" xlink:href="#DejaVuSans-115"/>
     </g>
    </g>
   </g>
   <g id="line2d_16">
    <path clip-path="url(#p6f74e96c42)" d="M 0 0 
" style="fill:none;stroke:#424242;stroke-linecap:square;stroke-width:2.7;"/>
   </g>
   <g id="line2d_17">
    <path clip-path="url(#p6f74e96c42)" d="M 0 0 
" style="fill:none;stroke:#424242;stroke-linecap:square;stroke-width:2.7;"/>
   </g>
   <g id="line2d_18">
    <path clip-path="url(#p6f74e96c42)" d="M 0 0 
" style="fill:none;stroke:#424242;stroke-linecap:square;stroke-width:2.7;"/>
   </g>
   <g id="line2d_19">
    <path clip-path="url(#p6f74e96c42)" d="M 0 0 
" style="fill:none;stroke:#424242;stroke-linecap:square;stroke-width:2.7;"/>
   </g>
   <g id="line2d_20">
    <path clip-path="url(#p6f74e96c42)" d="M 0 0 
" style="fill:none;stroke:#424242;stroke-linecap:square;stroke-width:2.7;"/>
   </g>
   <g id="line2d_21">
    <path clip-path="url(#p6f74e96c42)" d="M 0 0 
" style="fill:none;stroke:#424242;stroke-linecap:square;stroke-width:2.7;"/>
   </g>
   <g id="line2d_22">
    <path clip-path="url(#p6f74e96c42)" d="M 0 0 
" style="fill:none;stroke:#424242;stroke-linecap:square;stroke-width:2.7;"/>
   </g>
   <g id="line2d_23">
    <path clip-path="url(#p6f74e96c42)" d="M 0 0 
" style="fill:none;stroke:#424242;stroke-linecap:square;stroke-width:2.7;"/>
   </g>
   <g id="line2d_24">
    <path clip-path="url(#p6f74e96c42)" d="M 0 0 
" style="fill:none;stroke:#424242;stroke-linecap:square;stroke-width:2.7;"/>
   </g>
   <g id="line2d_25">
    <path clip-path="url(#p6f74e96c42)" d="M 0 0 
" style="fill:none;stroke:#424242;stroke-linecap:square;stroke-width:2.7;"/>
   </g>
   <g id="line2d_26">
    <path clip-path="url(#p6f74e96c42)" d="M 0 0 
" style="fill:none;stroke:#424242;stroke-linecap:square;stroke-width:2.7;"/>
   </g>
   <g id="line2d_27">
    <path clip-path="url(#p6f74e96c42)" d="M 0 0 
" style="fill:none;stroke:#424242;stroke-linecap:square;stroke-width:2.7;"/>
   </g>
   <g id="line2d_28">
    <path clip-path="url(#p6f74e96c42)" d="M 0 0 
" style="fill:none;stroke:#424242;stroke-linecap:square;stroke-width:2.7;"/>
   </g>
   <g id="line2d_29">
    <path clip-path="url(#p6f74e96c42)" d="M 0 0 
" style="fill:none;stroke:#424242;stroke-linecap:square;stroke-width:2.7;"/>
   </g>
   <g id="line2d_30">
    <path clip-path="url(#p6f74e96c42)" d="M 0 0 
" style="fill:none;stroke:#424242;stroke-linecap:square;stroke-width:2.7;"/>
   </g>
   <g id="line2d_31">
    <path clip-path="url(#p6f74e96c42)" d="M 0 0 
" style="fill:none;stroke:#424242;stroke-linecap:square;stroke-width:2.7;"/>
   </g>
   <g id="line2d_32">
    <path clip-path="url(#p6f74e96c42)" d="M 0 0 
" style="fill:none;stroke:#424242;stroke-linecap:square;stroke-width:2.7;"/>
   </g>
   <g id="line2d_33">
    <path clip-path="url(#p6f74e96c42)" d="M 0 0 
" style="fill:none;stroke:#424242;stroke-linecap:square;stroke-width:2.7;"/>
   </g>
   <g id="line2d_34">
    <path clip-path="url(#p6f74e96c42)" d="M 0 0 
" style="fill:none;stroke:#424242;stroke-linecap:square;stroke-width:2.7;"/>
   </g>
   <g id="line2d_35">
    <path clip-path="url(#p6f74e96c42)" d="M 0 0 
" style="fill:none;stroke:#424242;stroke-linecap:square;stroke-width:2.7;"/>
   </g>
   <g id="line2d_36">
    <path clip-path="url(#p6f74e96c42)" d="M 0 0 
" style="fill:none;stroke:#424242;stroke-linecap:square;stroke-width:2.7;"/>
   </g>
   <g id="line2d_37">
    <path clip-path="url(#p6f74e96c42)" d="M 0 0 
" style="fill:none;stroke:#424242;stroke-linecap:square;stroke-width:2.7;"/>
   </g>
   <g id="line2d_38">
    <path clip-path="url(#p6f74e96c42)" d="M 0 0 
" style="fill:none;stroke:#424242;stroke-linecap:square;stroke-width:2.7;"/>
   </g>
   <g id="line2d_39">
    <path clip-path="url(#p6f74e96c42)" d="M 0 0 
" style="fill:none;stroke:#424242;stroke-linecap:square;stroke-width:2.7;"/>
   </g>
   <g id="line2d_40">
    <path clip-path="url(#p6f74e96c42)" d="M 0 0 
" style="fill:none;stroke:#424242;stroke-linecap:square;stroke-width:2.7;"/>
   </g>
   <g id="line2d_41">
    <path clip-path="url(#p6f74e96c42)" d="M 0 0 
" style="fill:none;stroke:#424242;stroke-linecap:square;stroke-width:2.7;"/>
   </g>
   <g id="line2d_42">
    <path clip-path="url(#p6f74e96c42)" d="M 0 0 
" style="fill:none;stroke:#424242;stroke-linecap:square;stroke-width:2.7;"/>
   </g>
   <g id="line2d_43">
    <path clip-path="url(#p6f74e96c42)" d="M 0 0 
" style="fill:none;stroke:#424242;stroke-linecap:square;stroke-width:2.7;"/>
   </g>
   <g id="line2d_44">
    <path clip-path="url(#p6f74e96c42)" d="M 0 0 
" style="fill:none;stroke:#424242;stroke-linecap:square;stroke-width:2.7;"/>
   </g>
   <g id="line2d_45">
    <path clip-path="url(#p6f74e96c42)" d="M 0 0 
" style="fill:none;stroke:#424242;stroke-linecap:square;stroke-width:2.7;"/>
   </g>
   <g id="line2d_46">
    <path clip-path="url(#p6f74e96c42)" d="M 0 0 
" style="fill:none;stroke:#424242;stroke-linecap:square;stroke-width:2.7;"/>
   </g>
   <g id="line2d_47">
    <path clip-path="url(#p6f74e96c42)" d="M 0 0 
" style="fill:none;stroke:#424242;stroke-linecap:square;stroke-width:2.7;"/>
   </g>
   <g id="line2d_48">
    <path clip-path="url(#p6f74e96c42)" d="M 0 0 
" style="fill:none;stroke:#424242;stroke-linecap:square;stroke-width:2.7;"/>
   </g>
   <g id="line2d_49">
    <path clip-path="url(#p6f74e96c42)" d="M 0 0 
" style="fill:none;stroke:#424242;stroke-linecap:square;stroke-width:2.7;"/>
   </g>
   <g id="line2d_50">
    <path clip-path="url(#p6f74e96c42)" d="M 0 0 
" style="fill:none;stroke:#424242;stroke-linecap:square;stroke-width:2.7;"/>
   </g>
   <g id="line2d_51">
    <path clip-path="url(#p6f74e96c42)" d="M 0 0 
" style="fill:none;stroke:#424242;stroke-linecap:square;stroke-width:2.7;"/>
   </g>
   <g id="line2d_52">
    <path clip-path="url(#p6f74e96c42)" d="M 0 0 
" style="fill:none;stroke:#424242;stroke-linecap:square;stroke-width:2.7;"/>
   </g>
   <g id="line2d_53">
    <path clip-path="url(#p6f74e96c42)" d="M 0 0 
" style="fill:none;stroke:#424242;stroke-linecap:square;stroke-width:2.7;"/>
   </g>
   <g id="line2d_54">
    <path clip-path="url(#p6f74e96c42)" d="M 0 0 
" style="fill:none;stroke:#424242;stroke-linecap:square;stroke-width:2.7;"/>
   </g>
   <g id="line2d_55">
    <path clip-path="url(#p6f74e96c42)" d="M 0 0 
" style="fill:none;stroke:#424242;stroke-linecap:square;stroke-width:2.7;"/>
   </g>
   <g id="line2d_56">
    <path clip-path="url(#p6f74e96c42)" d="M 0 0 
" style="fill:none;stroke:#424242;stroke-linecap:square;stroke-width:2.7;"/>
   </g>
   <g id="line2d_57">
    <path clip-path="url(#p6f74e96c42)" d="M 0 0 
" style="fill:none;stroke:#424242;stroke-linecap:square;stroke-width:2.7;"/>
   </g>
   <g id="patch_45">
    <path d="M 135 333.490909 
L 135 86.4 
" style="fill:none;stroke:#000000;stroke-linecap:square;stroke-linejoin:miter;stroke-width:0.8;"/>
   </g>
   <g id="patch_46">
    <path d="M 972 333.490909 
L 972 86.4 
" style="fill:none;stroke:#000000;stroke-linecap:square;stroke-linejoin:miter;stroke-width:0.8;"/>
   </g>
   <g id="patch_47">
    <path d="M 135 333.490909 
L 972 333.490909 
" style="fill:none;stroke:#000000;stroke-linecap:square;stroke-linejoin:miter;stroke-width:0.8;"/>
   </g>
   <g id="patch_48">
    <path d="M 135 86.4 
L 972 86.4 
" style="fill:none;stroke:#000000;stroke-linecap:square;stroke-linejoin:miter;stroke-width:0.8;"/>
   </g>
   <g id="text_18">
    <!-- Didtribution plot for Confirmed cases in Canada -->
    <g transform="translate(410.25375 80.4)scale(0.12 -0.12)">
     <defs>
      <path d="M 19.671875 64.796875 
L 19.671875 8.109375 
L 31.59375 8.109375 
Q 46.6875 8.109375 53.6875 14.9375 
Q 60.6875 21.78125 60.6875 36.53125 
Q 60.6875 51.171875 53.6875 57.984375 
Q 46.6875 64.796875 31.59375 64.796875 
z
M 9.8125 72.90625 
L 30.078125 72.90625 
Q 51.265625 72.90625 61.171875 64.09375 
Q 71.09375 55.28125 71.09375 36.53125 
Q 71.09375 17.671875 61.125 8.828125 
Q 51.171875 0 30.078125 0 
L 9.8125 0 
z
" id="DejaVuSans-68"/>
      <path d="M 18.3125 70.21875 
L 18.3125 54.6875 
L 36.8125 54.6875 
L 36.8125 47.703125 
L 18.3125 47.703125 
L 18.3125 18.015625 
Q 18.3125 11.328125 20.140625 9.421875 
Q 21.96875 7.515625 27.59375 7.515625 
L 36.8125 7.515625 
L 36.8125 0 
L 27.59375 0 
Q 17.1875 0 13.234375 3.875 
Q 9.28125 7.765625 9.28125 18.015625 
L 9.28125 47.703125 
L 2.6875 47.703125 
L 2.6875 54.6875 
L 9.28125 54.6875 
L 9.28125 70.21875 
z
" id="DejaVuSans-116"/>
      <path d="M 18.109375 8.203125 
L 18.109375 -20.796875 
L 9.078125 -20.796875 
L 9.078125 54.6875 
L 18.109375 54.6875 
L 18.109375 46.390625 
Q 20.953125 51.265625 25.265625 53.625 
Q 29.59375 56 35.59375 56 
Q 45.5625 56 51.78125 48.09375 
Q 58.015625 40.1875 58.015625 27.296875 
Q 58.015625 14.40625 51.78125 6.484375 
Q 45.5625 -1.421875 35.59375 -1.421875 
Q 29.59375 -1.421875 25.265625 0.953125 
Q 20.953125 3.328125 18.109375 8.203125 
z
M 48.6875 27.296875 
Q 48.6875 37.203125 44.609375 42.84375 
Q 40.53125 48.484375 33.40625 48.484375 
Q 26.265625 48.484375 22.1875 42.84375 
Q 18.109375 37.203125 18.109375 27.296875 
Q 18.109375 17.390625 22.1875 11.75 
Q 26.265625 6.109375 33.40625 6.109375 
Q 40.53125 6.109375 44.609375 11.75 
Q 48.6875 17.390625 48.6875 27.296875 
z
" id="DejaVuSans-112"/>
      <path d="M 9.421875 75.984375 
L 18.40625 75.984375 
L 18.40625 0 
L 9.421875 0 
z
" id="DejaVuSans-108"/>
      <path d="M 48.78125 52.59375 
L 48.78125 44.1875 
Q 44.96875 46.296875 41.140625 47.34375 
Q 37.3125 48.390625 33.40625 48.390625 
Q 24.65625 48.390625 19.8125 42.84375 
Q 14.984375 37.3125 14.984375 27.296875 
Q 14.984375 17.28125 19.8125 11.734375 
Q 24.65625 6.203125 33.40625 6.203125 
Q 37.3125 6.203125 41.140625 7.25 
Q 44.96875 8.296875 48.78125 10.40625 
L 48.78125 2.09375 
Q 45.015625 0.34375 40.984375 -0.53125 
Q 36.96875 -1.421875 32.421875 -1.421875 
Q 20.0625 -1.421875 12.78125 6.34375 
Q 5.515625 14.109375 5.515625 27.296875 
Q 5.515625 40.671875 12.859375 48.328125 
Q 20.21875 56 33.015625 56 
Q 37.15625 56 41.109375 55.140625 
Q 45.0625 54.296875 48.78125 52.59375 
z
" id="DejaVuSans-99"/>
     </defs>
     <use xlink:href="#DejaVuSans-68"/>
     <use x="77.001953" xlink:href="#DejaVuSans-105"/>
     <use x="104.785156" xlink:href="#DejaVuSans-100"/>
     <use x="168.261719" xlink:href="#DejaVuSans-116"/>
     <use x="207.470703" xlink:href="#DejaVuSans-114"/>
     <use x="248.583984" xlink:href="#DejaVuSans-105"/>
     <use x="276.367188" xlink:href="#DejaVuSans-98"/>
     <use x="339.84375" xlink:href="#DejaVuSans-117"/>
     <use x="403.222656" xlink:href="#DejaVuSans-116"/>
     <use x="442.431641" xlink:href="#DejaVuSans-105"/>
     <use x="470.214844" xlink:href="#DejaVuSans-111"/>
     <use x="531.396484" xlink:href="#DejaVuSans-110"/>
     <use x="594.775391" xlink:href="#DejaVuSans-32"/>
     <use x="626.5625" xlink:href="#DejaVuSans-112"/>
     <use x="690.039062" xlink:href="#DejaVuSans-108"/>
     <use x="717.822266" xlink:href="#DejaVuSans-111"/>
     <use x="779.003906" xlink:href="#DejaVuSans-116"/>
     <use x="818.212891" xlink:href="#DejaVuSans-32"/>
     <use x="850" xlink:href="#DejaVuSans-102"/>
     <use x="885.205078" xlink:href="#DejaVuSans-111"/>
     <use x="946.386719" xlink:href="#DejaVuSans-114"/>
     <use x="987.5" xlink:href="#DejaVuSans-32"/>
     <use x="1019.287109" xlink:href="#DejaVuSans-67"/>
     <use x="1089.111328" xlink:href="#DejaVuSans-111"/>
     <use x="1150.292969" xlink:href="#DejaVuSans-110"/>
     <use x="1213.671875" xlink:href="#DejaVuSans-102"/>
     <use x="1248.876953" xlink:href="#DejaVuSans-105"/>
     <use x="1276.660156" xlink:href="#DejaVuSans-114"/>
     <use x="1316.023438" xlink:href="#DejaVuSans-109"/>
     <use x="1413.435547" xlink:href="#DejaVuSans-101"/>
     <use x="1474.958984" xlink:href="#DejaVuSans-100"/>
     <use x="1538.435547" xlink:href="#DejaVuSans-32"/>
     <use x="1570.222656" xlink:href="#DejaVuSans-99"/>
     <use x="1625.203125" xlink:href="#DejaVuSans-97"/>
     <use x="1686.482422" xlink:href="#DejaVuSans-115"/>
     <use x="1738.582031" xlink:href="#DejaVuSans-101"/>
     <use x="1800.105469" xlink:href="#DejaVuSans-115"/>
     <use x="1852.205078" xlink:href="#DejaVuSans-32"/>
     <use x="1883.992188" xlink:href="#DejaVuSans-105"/>
     <use x="1911.775391" xlink:href="#DejaVuSans-110"/>
     <use x="1975.154297" xlink:href="#DejaVuSans-32"/>
     <use x="2006.941406" xlink:href="#DejaVuSans-67"/>
     <use x="2076.765625" xlink:href="#DejaVuSans-97"/>
     <use x="2138.044922" xlink:href="#DejaVuSans-110"/>
     <use x="2201.423828" xlink:href="#DejaVuSans-97"/>
     <use x="2262.703125" xlink:href="#DejaVuSans-100"/>
     <use x="2326.179688" xlink:href="#DejaVuSans-97"/>
    </g>
   </g>
  </g>
  <g id="axes_2">
   <g id="patch_49">
    <path d="M 135 630 
L 972 630 
L 972 382.909091 
L 135 382.909091 
z
" style="fill:#ffffff;"/>
   </g>
   <g id="patch_50">
    <path clip-path="url(#pc5b9fdb48c)" d="M 136.992857 630 
L 152.935714 630 
L 152.935714 630 
L 136.992857 630 
z
" style="fill:#ea96a3;"/>
   </g>
   <g id="patch_51">
    <path clip-path="url(#pc5b9fdb48c)" d="M 156.921429 630 
L 172.864286 630 
L 172.864286 630 
L 156.921429 630 
z
" style="fill:#ea9797;"/>
   </g>
   <g id="patch_52">
    <path clip-path="url(#pc5b9fdb48c)" d="M 176.85 630 
L 192.792857 630 
L 192.792857 630 
L 176.85 630 
z
" style="fill:#e89685;"/>
   </g>
   <g id="patch_53">
    <path clip-path="url(#pc5b9fdb48c)" d="M 196.778571 630 
L 212.721429 630 
L 212.721429 630 
L 196.778571 630 
z
" style="fill:#e4946a;"/>
   </g>
   <g id="patch_54">
    <path clip-path="url(#pc5b9fdb48c)" d="M 216.707143 630 
L 232.65 630 
L 232.65 630 
L 216.707143 630 
z
" style="fill:#da934e;"/>
   </g>
   <g id="patch_55">
    <path clip-path="url(#pc5b9fdb48c)" d="M 236.635714 630 
L 252.578571 630 
L 252.578571 630 
L 236.635714 630 
z
" style="fill:#cd974c;"/>
   </g>
   <g id="patch_56">
    <path clip-path="url(#pc5b9fdb48c)" d="M 256.564286 630 
L 272.507143 630 
L 272.507143 630 
L 256.564286 630 
z
" style="fill:#c29a4b;"/>
   </g>
   <g id="patch_57">
    <path clip-path="url(#pc5b9fdb48c)" d="M 276.492857 630 
L 292.435714 630 
L 292.435714 629.80324 
L 276.492857 629.80324 
z
" style="fill:#b89c49;"/>
   </g>
   <g id="patch_58">
    <path clip-path="url(#pc5b9fdb48c)" d="M 296.421429 630 
L 312.364286 630 
L 312.364286 626.064805 
L 296.421429 626.064805 
z
" style="fill:#af9d48;"/>
   </g>
   <g id="patch_59">
    <path clip-path="url(#pc5b9fdb48c)" d="M 316.35 630 
L 332.292857 630 
L 332.292857 621.53933 
L 316.35 621.53933 
z
" style="fill:#a69f46;"/>
   </g>
   <g id="patch_60">
    <path clip-path="url(#pc5b9fdb48c)" d="M 336.278571 630 
L 352.221429 630 
L 352.221429 591.631846 
L 336.278571 591.631846 
z
" style="fill:#9ca145;"/>
   </g>
   <g id="patch_61">
    <path clip-path="url(#pc5b9fdb48c)" d="M 356.207143 630 
L 372.15 630 
L 372.15 540.474308 
L 356.207143 540.474308 
z
" style="fill:#93a446;"/>
   </g>
   <g id="patch_62">
    <path clip-path="url(#pc5b9fdb48c)" d="M 376.135714 630 
L 392.078571 630 
L 392.078571 462.557443 
L 376.135714 462.557443 
z
" style="fill:#88a746;"/>
   </g>
   <g id="patch_63">
    <path clip-path="url(#pc5b9fdb48c)" d="M 396.064286 630 
L 412.007143 630 
L 412.007143 409.235547 
L 396.064286 409.235547 
z
" style="fill:#78aa47;"/>
   </g>
   <g id="patch_64">
    <path clip-path="url(#pc5b9fdb48c)" d="M 415.992857 630 
L 431.935714 630 
L 431.935714 411.990184 
L 415.992857 411.990184 
z
" style="fill:#60ae47;"/>
   </g>
   <g id="patch_65">
    <path clip-path="url(#pc5b9fdb48c)" d="M 435.921429 630 
L 451.864286 630 
L 451.864286 394.675325 
L 435.921429 394.675325 
z
" style="fill:#48b05e;"/>
   </g>
   <g id="patch_66">
    <path clip-path="url(#pc5b9fdb48c)" d="M 455.85 630 
L 471.792857 630 
L 471.792857 450.555097 
L 455.85 450.555097 
z
" style="fill:#49af77;"/>
   </g>
   <g id="patch_67">
    <path clip-path="url(#pc5b9fdb48c)" d="M 475.778571 630 
L 491.721429 630 
L 491.721429 505.84459 
L 475.778571 505.84459 
z
" style="fill:#49ae85;"/>
   </g>
   <g id="patch_68">
    <path clip-path="url(#pc5b9fdb48c)" d="M 495.707143 630 
L 511.65 630 
L 511.65 464.7218 
L 495.707143 464.7218 
z
" style="fill:#4aad8f;"/>
   </g>
   <g id="patch_69">
    <path clip-path="url(#pc5b9fdb48c)" d="M 515.635714 630 
L 531.578571 630 
L 531.578571 531.02984 
L 515.635714 531.02984 
z
" style="fill:#4aac97;"/>
   </g>
   <g id="patch_70">
    <path clip-path="url(#pc5b9fdb48c)" d="M 535.564286 630 
L 551.507143 630 
L 551.507143 562.904921 
L 535.564286 562.904921 
z
" style="fill:#4bac9e;"/>
   </g>
   <g id="patch_71">
    <path clip-path="url(#pc5b9fdb48c)" d="M 555.492857 630 
L 571.435714 630 
L 571.435714 578.055423 
L 555.492857 578.055423 
z
" style="fill:#4baba4;"/>
   </g>
   <g id="patch_72">
    <path clip-path="url(#pc5b9fdb48c)" d="M 575.421429 630 
L 591.364286 630 
L 591.364286 610.324024 
L 575.421429 610.324024 
z
" style="fill:#4babaa;"/>
   </g>
   <g id="patch_73">
    <path clip-path="url(#pc5b9fdb48c)" d="M 595.35 630 
L 611.292857 630 
L 611.292857 599.108717 
L 595.35 599.108717 
z
" style="fill:#4dabb1;"/>
   </g>
   <g id="patch_74">
    <path clip-path="url(#pc5b9fdb48c)" d="M 615.278571 630 
L 631.221429 630 
L 631.221429 612.291621 
L 615.278571 612.291621 
z
" style="fill:#4eabb8;"/>
   </g>
   <g id="patch_75">
    <path clip-path="url(#pc5b9fdb48c)" d="M 635.207143 630 
L 651.15 630 
L 651.15 616.817096 
L 635.207143 616.817096 
z
" style="fill:#50acc1;"/>
   </g>
   <g id="patch_76">
    <path clip-path="url(#pc5b9fdb48c)" d="M 655.135714 630 
L 671.078571 630 
L 671.078571 622.523129 
L 655.135714 622.523129 
z
" style="fill:#52acca;"/>
   </g>
   <g id="patch_77">
    <path clip-path="url(#pc5b9fdb48c)" d="M 675.064286 630 
L 691.007143 630 
L 691.007143 618.981453 
L 675.064286 618.981453 
z
" style="fill:#55acd7;"/>
   </g>
   <g id="patch_78">
    <path clip-path="url(#pc5b9fdb48c)" d="M 694.992857 630 
L 710.935714 630 
L 710.935714 622.523129 
L 694.992857 622.523129 
z
" style="fill:#6daee2;"/>
   </g>
   <g id="patch_79">
    <path clip-path="url(#pc5b9fdb48c)" d="M 714.921429 630 
L 730.864286 630 
L 730.864286 620.949051 
L 714.921429 620.949051 
z
" style="fill:#8baee7;"/>
   </g>
   <g id="patch_80">
    <path clip-path="url(#pc5b9fdb48c)" d="M 734.85 630 
L 750.792857 630 
L 750.792857 621.145811 
L 734.85 621.145811 
z
" style="fill:#a0adea;"/>
   </g>
   <g id="patch_81">
    <path clip-path="url(#pc5b9fdb48c)" d="M 754.778571 630 
L 770.721429 630 
L 770.721429 621.145811 
L 754.778571 621.145811 
z
" style="fill:#b0aaeb;"/>
   </g>
   <g id="patch_82">
    <path clip-path="url(#pc5b9fdb48c)" d="M 774.707143 630 
L 790.65 630 
L 790.65 624.097207 
L 774.707143 624.097207 
z
" style="fill:#bca5ea;"/>
   </g>
   <g id="patch_83">
    <path clip-path="url(#pc5b9fdb48c)" d="M 794.635714 630 
L 810.578571 630 
L 810.578571 624.884246 
L 794.635714 624.884246 
z
" style="fill:#c79fe9;"/>
   </g>
   <g id="patch_84">
    <path clip-path="url(#pc5b9fdb48c)" d="M 814.564286 630 
L 830.507143 630 
L 830.507143 620.752291 
L 814.564286 620.752291 
z
" style="fill:#d398e8;"/>
   </g>
   <g id="patch_85">
    <path clip-path="url(#pc5b9fdb48c)" d="M 834.492857 630 
L 850.435714 630 
L 850.435714 619.965252 
L 834.492857 619.965252 
z
" style="fill:#df8fe7;"/>
   </g>
   <g id="patch_86">
    <path clip-path="url(#pc5b9fdb48c)" d="M 854.421429 630 
L 870.364286 630 
L 870.364286 587.696651 
L 854.421429 587.696651 
z
" style="fill:#e78ae0;"/>
   </g>
   <g id="patch_87">
    <path clip-path="url(#pc5b9fdb48c)" d="M 874.35 630 
L 890.292857 630 
L 890.292857 603.830952 
L 874.35 603.830952 
z
" style="fill:#e78dd5;"/>
   </g>
   <g id="patch_88">
    <path clip-path="url(#pc5b9fdb48c)" d="M 894.278571 630 
L 910.221429 630 
L 910.221429 600.486036 
L 894.278571 600.486036 
z
" style="fill:#e88fca;"/>
   </g>
   <g id="patch_89">
    <path clip-path="url(#pc5b9fdb48c)" d="M 914.207143 630 
L 930.15 630 
L 930.15 594.780003 
L 914.207143 594.780003 
z
" style="fill:#e891c1;"/>
   </g>
   <g id="patch_90">
    <path clip-path="url(#pc5b9fdb48c)" d="M 934.135714 630 
L 950.078571 630 
L 950.078571 583.761456 
L 934.135714 583.761456 
z
" style="fill:#e993b8;"/>
   </g>
   <g id="patch_91">
    <path clip-path="url(#pc5b9fdb48c)" d="M 954.064286 630 
L 970.007143 630 
L 970.007143 562.117882 
L 954.064286 562.117882 
z
" style="fill:#e994af;"/>
   </g>
   <g id="matplotlib.axis_3">
    <g id="xtick_10">
     <g id="line2d_58">
      <g>
       <use style="stroke:#000000;stroke-width:0.8;" x="144.964286" xlink:href="#me13e3a9a76" y="630"/>
      </g>
     </g>
     <g id="text_19">
      <!-- 0 -->
      <g transform="translate(141.783036 644.598437)scale(0.1 -0.1)">
       <use xlink:href="#DejaVuSans-48"/>
      </g>
     </g>
    </g>
    <g id="xtick_11">
     <g id="line2d_59">
      <g>
       <use style="stroke:#000000;stroke-width:0.8;" x="244.607143" xlink:href="#me13e3a9a76" y="630"/>
      </g>
     </g>
     <g id="text_20">
      <!-- 5 -->
      <g transform="translate(241.425893 644.598437)scale(0.1 -0.1)">
       <use xlink:href="#DejaVuSans-53"/>
      </g>
     </g>
    </g>
    <g id="xtick_12">
     <g id="line2d_60">
      <g>
       <use style="stroke:#000000;stroke-width:0.8;" x="344.25" xlink:href="#me13e3a9a76" y="630"/>
      </g>
     </g>
     <g id="text_21">
      <!-- 10 -->
      <g transform="translate(337.8875 644.598437)scale(0.1 -0.1)">
       <use xlink:href="#DejaVuSans-49"/>
       <use x="63.623047" xlink:href="#DejaVuSans-48"/>
      </g>
     </g>
    </g>
    <g id="xtick_13">
     <g id="line2d_61">
      <g>
       <use style="stroke:#000000;stroke-width:0.8;" x="443.892857" xlink:href="#me13e3a9a76" y="630"/>
      </g>
     </g>
     <g id="text_22">
      <!-- 15 -->
      <g transform="translate(437.530357 644.598437)scale(0.1 -0.1)">
       <use xlink:href="#DejaVuSans-49"/>
       <use x="63.623047" xlink:href="#DejaVuSans-53"/>
      </g>
     </g>
    </g>
    <g id="xtick_14">
     <g id="line2d_62">
      <g>
       <use style="stroke:#000000;stroke-width:0.8;" x="543.535714" xlink:href="#me13e3a9a76" y="630"/>
      </g>
     </g>
     <g id="text_23">
      <!-- 20 -->
      <g transform="translate(537.173214 644.598437)scale(0.1 -0.1)">
       <use xlink:href="#DejaVuSans-50"/>
       <use x="63.623047" xlink:href="#DejaVuSans-48"/>
      </g>
     </g>
    </g>
    <g id="xtick_15">
     <g id="line2d_63">
      <g>
       <use style="stroke:#000000;stroke-width:0.8;" x="643.178571" xlink:href="#me13e3a9a76" y="630"/>
      </g>
     </g>
     <g id="text_24">
      <!-- 25 -->
      <g transform="translate(636.816071 644.598437)scale(0.1 -0.1)">
       <use xlink:href="#DejaVuSans-50"/>
       <use x="63.623047" xlink:href="#DejaVuSans-53"/>
      </g>
     </g>
    </g>
    <g id="xtick_16">
     <g id="line2d_64">
      <g>
       <use style="stroke:#000000;stroke-width:0.8;" x="742.821429" xlink:href="#me13e3a9a76" y="630"/>
      </g>
     </g>
     <g id="text_25">
      <!-- 30 -->
      <g transform="translate(736.458929 644.598437)scale(0.1 -0.1)">
       <use xlink:href="#DejaVuSans-51"/>
       <use x="63.623047" xlink:href="#DejaVuSans-48"/>
      </g>
     </g>
    </g>
    <g id="xtick_17">
     <g id="line2d_65">
      <g>
       <use style="stroke:#000000;stroke-width:0.8;" x="842.464286" xlink:href="#me13e3a9a76" y="630"/>
      </g>
     </g>
     <g id="text_26">
      <!-- 35 -->
      <g transform="translate(836.101786 644.598437)scale(0.1 -0.1)">
       <use xlink:href="#DejaVuSans-51"/>
       <use x="63.623047" xlink:href="#DejaVuSans-53"/>
      </g>
     </g>
    </g>
    <g id="xtick_18">
     <g id="line2d_66">
      <g>
       <use style="stroke:#000000;stroke-width:0.8;" x="942.107143" xlink:href="#me13e3a9a76" y="630"/>
      </g>
     </g>
     <g id="text_27">
      <!-- 40 -->
      <g transform="translate(935.744643 644.598437)scale(0.1 -0.1)">
       <use xlink:href="#DejaVuSans-52"/>
       <use x="63.623047" xlink:href="#DejaVuSans-48"/>
      </g>
     </g>
    </g>
    <g id="text_28">
     <!-- Year Week Number -->
     <g transform="translate(505.95 658.276562)scale(0.1 -0.1)">
      <use xlink:href="#DejaVuSans-89"/>
      <use x="47.833984" xlink:href="#DejaVuSans-101"/>
      <use x="109.357422" xlink:href="#DejaVuSans-97"/>
      <use x="170.636719" xlink:href="#DejaVuSans-114"/>
      <use x="211.75" xlink:href="#DejaVuSans-32"/>
      <use x="243.537109" xlink:href="#DejaVuSans-87"/>
      <use x="336.539062" xlink:href="#DejaVuSans-101"/>
      <use x="398.0625" xlink:href="#DejaVuSans-101"/>
      <use x="459.585938" xlink:href="#DejaVuSans-107"/>
      <use x="517.496094" xlink:href="#DejaVuSans-32"/>
      <use x="549.283203" xlink:href="#DejaVuSans-78"/>
      <use x="624.087891" xlink:href="#DejaVuSans-117"/>
      <use x="687.466797" xlink:href="#DejaVuSans-109"/>
      <use x="784.878906" xlink:href="#DejaVuSans-98"/>
      <use x="848.355469" xlink:href="#DejaVuSans-101"/>
      <use x="909.878906" xlink:href="#DejaVuSans-114"/>
     </g>
    </g>
   </g>
   <g id="matplotlib.axis_4">
    <g id="ytick_7">
     <g id="line2d_67">
      <g>
       <use style="stroke:#000000;stroke-width:0.8;" x="135" xlink:href="#m2c27d39de0" y="630"/>
      </g>
     </g>
     <g id="text_29">
      <!-- 0 -->
      <g transform="translate(121.6375 633.799219)scale(0.1 -0.1)">
       <use xlink:href="#DejaVuSans-48"/>
      </g>
     </g>
    </g>
    <g id="ytick_8">
     <g id="line2d_68">
      <g>
       <use style="stroke:#000000;stroke-width:0.8;" x="135" xlink:href="#m2c27d39de0" y="590.648048"/>
      </g>
     </g>
     <g id="text_30">
      <!-- 200 -->
      <g transform="translate(108.9125 594.447266)scale(0.1 -0.1)">
       <use xlink:href="#DejaVuSans-50"/>
       <use x="63.623047" xlink:href="#DejaVuSans-48"/>
       <use x="127.246094" xlink:href="#DejaVuSans-48"/>
      </g>
     </g>
    </g>
    <g id="ytick_9">
     <g id="line2d_69">
      <g>
       <use style="stroke:#000000;stroke-width:0.8;" x="135" xlink:href="#m2c27d39de0" y="551.296095"/>
      </g>
     </g>
     <g id="text_31">
      <!-- 400 -->
      <g transform="translate(108.9125 555.095314)scale(0.1 -0.1)">
       <use xlink:href="#DejaVuSans-52"/>
       <use x="63.623047" xlink:href="#DejaVuSans-48"/>
       <use x="127.246094" xlink:href="#DejaVuSans-48"/>
      </g>
     </g>
    </g>
    <g id="ytick_10">
     <g id="line2d_70">
      <g>
       <use style="stroke:#000000;stroke-width:0.8;" x="135" xlink:href="#m2c27d39de0" y="511.944143"/>
      </g>
     </g>
     <g id="text_32">
      <!-- 600 -->
      <g transform="translate(108.9125 515.743362)scale(0.1 -0.1)">
       <defs>
        <path d="M 33.015625 40.375 
Q 26.375 40.375 22.484375 35.828125 
Q 18.609375 31.296875 18.609375 23.390625 
Q 18.609375 15.53125 22.484375 10.953125 
Q 26.375 6.390625 33.015625 6.390625 
Q 39.65625 6.390625 43.53125 10.953125 
Q 47.40625 15.53125 47.40625 23.390625 
Q 47.40625 31.296875 43.53125 35.828125 
Q 39.65625 40.375 33.015625 40.375 
z
M 52.59375 71.296875 
L 52.59375 62.3125 
Q 48.875 64.0625 45.09375 64.984375 
Q 41.3125 65.921875 37.59375 65.921875 
Q 27.828125 65.921875 22.671875 59.328125 
Q 17.53125 52.734375 16.796875 39.40625 
Q 19.671875 43.65625 24.015625 45.921875 
Q 28.375 48.1875 33.59375 48.1875 
Q 44.578125 48.1875 50.953125 41.515625 
Q 57.328125 34.859375 57.328125 23.390625 
Q 57.328125 12.15625 50.6875 5.359375 
Q 44.046875 -1.421875 33.015625 -1.421875 
Q 20.359375 -1.421875 13.671875 8.265625 
Q 6.984375 17.96875 6.984375 36.375 
Q 6.984375 53.65625 15.1875 63.9375 
Q 23.390625 74.21875 37.203125 74.21875 
Q 40.921875 74.21875 44.703125 73.484375 
Q 48.484375 72.75 52.59375 71.296875 
z
" id="DejaVuSans-54"/>
       </defs>
       <use xlink:href="#DejaVuSans-54"/>
       <use x="63.623047" xlink:href="#DejaVuSans-48"/>
       <use x="127.246094" xlink:href="#DejaVuSans-48"/>
      </g>
     </g>
    </g>
    <g id="ytick_11">
     <g id="line2d_71">
      <g>
       <use style="stroke:#000000;stroke-width:0.8;" x="135" xlink:href="#m2c27d39de0" y="472.59219"/>
      </g>
     </g>
     <g id="text_33">
      <!-- 800 -->
      <g transform="translate(108.9125 476.391409)scale(0.1 -0.1)">
       <defs>
        <path d="M 31.78125 34.625 
Q 24.75 34.625 20.71875 30.859375 
Q 16.703125 27.09375 16.703125 20.515625 
Q 16.703125 13.921875 20.71875 10.15625 
Q 24.75 6.390625 31.78125 6.390625 
Q 38.8125 6.390625 42.859375 10.171875 
Q 46.921875 13.96875 46.921875 20.515625 
Q 46.921875 27.09375 42.890625 30.859375 
Q 38.875 34.625 31.78125 34.625 
z
M 21.921875 38.8125 
Q 15.578125 40.375 12.03125 44.71875 
Q 8.5 49.078125 8.5 55.328125 
Q 8.5 64.0625 14.71875 69.140625 
Q 20.953125 74.21875 31.78125 74.21875 
Q 42.671875 74.21875 48.875 69.140625 
Q 55.078125 64.0625 55.078125 55.328125 
Q 55.078125 49.078125 51.53125 44.71875 
Q 48 40.375 41.703125 38.8125 
Q 48.828125 37.15625 52.796875 32.3125 
Q 56.78125 27.484375 56.78125 20.515625 
Q 56.78125 9.90625 50.3125 4.234375 
Q 43.84375 -1.421875 31.78125 -1.421875 
Q 19.734375 -1.421875 13.25 4.234375 
Q 6.78125 9.90625 6.78125 20.515625 
Q 6.78125 27.484375 10.78125 32.3125 
Q 14.796875 37.15625 21.921875 38.8125 
z
M 18.3125 54.390625 
Q 18.3125 48.734375 21.84375 45.5625 
Q 25.390625 42.390625 31.78125 42.390625 
Q 38.140625 42.390625 41.71875 45.5625 
Q 45.3125 48.734375 45.3125 54.390625 
Q 45.3125 60.0625 41.71875 63.234375 
Q 38.140625 66.40625 31.78125 66.40625 
Q 25.390625 66.40625 21.84375 63.234375 
Q 18.3125 60.0625 18.3125 54.390625 
z
" id="DejaVuSans-56"/>
       </defs>
       <use xlink:href="#DejaVuSans-56"/>
       <use x="63.623047" xlink:href="#DejaVuSans-48"/>
       <use x="127.246094" xlink:href="#DejaVuSans-48"/>
      </g>
     </g>
    </g>
    <g id="ytick_12">
     <g id="line2d_72">
      <g>
       <use style="stroke:#000000;stroke-width:0.8;" x="135" xlink:href="#m2c27d39de0" y="433.240238"/>
      </g>
     </g>
     <g id="text_34">
      <!-- 1000 -->
      <g transform="translate(102.55 437.039457)scale(0.1 -0.1)">
       <use xlink:href="#DejaVuSans-49"/>
       <use x="63.623047" xlink:href="#DejaVuSans-48"/>
       <use x="127.246094" xlink:href="#DejaVuSans-48"/>
       <use x="190.869141" xlink:href="#DejaVuSans-48"/>
      </g>
     </g>
    </g>
    <g id="ytick_13">
     <g id="line2d_73">
      <g>
       <use style="stroke:#000000;stroke-width:0.8;" x="135" xlink:href="#m2c27d39de0" y="393.888286"/>
      </g>
     </g>
     <g id="text_35">
      <!-- 1200 -->
      <g transform="translate(102.55 397.687504)scale(0.1 -0.1)">
       <use xlink:href="#DejaVuSans-49"/>
       <use x="63.623047" xlink:href="#DejaVuSans-50"/>
       <use x="127.246094" xlink:href="#DejaVuSans-48"/>
       <use x="190.869141" xlink:href="#DejaVuSans-48"/>
      </g>
     </g>
    </g>
    <g id="text_36">
     <!-- Number Of Deaths Cases -->
     <g transform="translate(96.470312 569.569389)rotate(-90)scale(0.1 -0.1)">
      <defs>
       <path d="M 54.890625 33.015625 
L 54.890625 0 
L 45.90625 0 
L 45.90625 32.71875 
Q 45.90625 40.484375 42.875 44.328125 
Q 39.84375 48.1875 33.796875 48.1875 
Q 26.515625 48.1875 22.3125 43.546875 
Q 18.109375 38.921875 18.109375 30.90625 
L 18.109375 0 
L 9.078125 0 
L 9.078125 75.984375 
L 18.109375 75.984375 
L 18.109375 46.1875 
Q 21.34375 51.125 25.703125 53.5625 
Q 30.078125 56 35.796875 56 
Q 45.21875 56 50.046875 50.171875 
Q 54.890625 44.34375 54.890625 33.015625 
z
" id="DejaVuSans-104"/>
      </defs>
      <use xlink:href="#DejaVuSans-78"/>
      <use x="74.804688" xlink:href="#DejaVuSans-117"/>
      <use x="138.183594" xlink:href="#DejaVuSans-109"/>
      <use x="235.595703" xlink:href="#DejaVuSans-98"/>
      <use x="299.072266" xlink:href="#DejaVuSans-101"/>
      <use x="360.595703" xlink:href="#DejaVuSans-114"/>
      <use x="401.708984" xlink:href="#DejaVuSans-32"/>
      <use x="433.496094" xlink:href="#DejaVuSans-79"/>
      <use x="512.207031" xlink:href="#DejaVuSans-102"/>
      <use x="547.412109" xlink:href="#DejaVuSans-32"/>
      <use x="579.199219" xlink:href="#DejaVuSans-68"/>
      <use x="656.201172" xlink:href="#DejaVuSans-101"/>
      <use x="717.724609" xlink:href="#DejaVuSans-97"/>
      <use x="779.003906" xlink:href="#DejaVuSans-116"/>
      <use x="818.212891" xlink:href="#DejaVuSans-104"/>
      <use x="881.591797" xlink:href="#DejaVuSans-115"/>
      <use x="933.691406" xlink:href="#DejaVuSans-32"/>
      <use x="965.478516" xlink:href="#DejaVuSans-67"/>
      <use x="1035.302734" xlink:href="#DejaVuSans-97"/>
      <use x="1096.582031" xlink:href="#DejaVuSans-115"/>
      <use x="1148.681641" xlink:href="#DejaVuSans-101"/>
      <use x="1210.205078" xlink:href="#DejaVuSans-115"/>
     </g>
    </g>
   </g>
   <g id="line2d_74">
    <path clip-path="url(#pc5b9fdb48c)" d="M 0 0 
" style="fill:none;stroke:#424242;stroke-linecap:square;stroke-width:2.7;"/>
   </g>
   <g id="line2d_75">
    <path clip-path="url(#pc5b9fdb48c)" d="M 0 0 
" style="fill:none;stroke:#424242;stroke-linecap:square;stroke-width:2.7;"/>
   </g>
   <g id="line2d_76">
    <path clip-path="url(#pc5b9fdb48c)" d="M 0 0 
" style="fill:none;stroke:#424242;stroke-linecap:square;stroke-width:2.7;"/>
   </g>
   <g id="line2d_77">
    <path clip-path="url(#pc5b9fdb48c)" d="M 0 0 
" style="fill:none;stroke:#424242;stroke-linecap:square;stroke-width:2.7;"/>
   </g>
   <g id="line2d_78">
    <path clip-path="url(#pc5b9fdb48c)" d="M 0 0 
" style="fill:none;stroke:#424242;stroke-linecap:square;stroke-width:2.7;"/>
   </g>
   <g id="line2d_79">
    <path clip-path="url(#pc5b9fdb48c)" d="M 0 0 
" style="fill:none;stroke:#424242;stroke-linecap:square;stroke-width:2.7;"/>
   </g>
   <g id="line2d_80">
    <path clip-path="url(#pc5b9fdb48c)" d="M 0 0 
" style="fill:none;stroke:#424242;stroke-linecap:square;stroke-width:2.7;"/>
   </g>
   <g id="line2d_81">
    <path clip-path="url(#pc5b9fdb48c)" d="M 0 0 
" style="fill:none;stroke:#424242;stroke-linecap:square;stroke-width:2.7;"/>
   </g>
   <g id="line2d_82">
    <path clip-path="url(#pc5b9fdb48c)" d="M 0 0 
" style="fill:none;stroke:#424242;stroke-linecap:square;stroke-width:2.7;"/>
   </g>
   <g id="line2d_83">
    <path clip-path="url(#pc5b9fdb48c)" d="M 0 0 
" style="fill:none;stroke:#424242;stroke-linecap:square;stroke-width:2.7;"/>
   </g>
   <g id="line2d_84">
    <path clip-path="url(#pc5b9fdb48c)" d="M 0 0 
" style="fill:none;stroke:#424242;stroke-linecap:square;stroke-width:2.7;"/>
   </g>
   <g id="line2d_85">
    <path clip-path="url(#pc5b9fdb48c)" d="M 0 0 
" style="fill:none;stroke:#424242;stroke-linecap:square;stroke-width:2.7;"/>
   </g>
   <g id="line2d_86">
    <path clip-path="url(#pc5b9fdb48c)" d="M 0 0 
" style="fill:none;stroke:#424242;stroke-linecap:square;stroke-width:2.7;"/>
   </g>
   <g id="line2d_87">
    <path clip-path="url(#pc5b9fdb48c)" d="M 0 0 
" style="fill:none;stroke:#424242;stroke-linecap:square;stroke-width:2.7;"/>
   </g>
   <g id="line2d_88">
    <path clip-path="url(#pc5b9fdb48c)" d="M 0 0 
" style="fill:none;stroke:#424242;stroke-linecap:square;stroke-width:2.7;"/>
   </g>
   <g id="line2d_89">
    <path clip-path="url(#pc5b9fdb48c)" d="M 0 0 
" style="fill:none;stroke:#424242;stroke-linecap:square;stroke-width:2.7;"/>
   </g>
   <g id="line2d_90">
    <path clip-path="url(#pc5b9fdb48c)" d="M 0 0 
" style="fill:none;stroke:#424242;stroke-linecap:square;stroke-width:2.7;"/>
   </g>
   <g id="line2d_91">
    <path clip-path="url(#pc5b9fdb48c)" d="M 0 0 
" style="fill:none;stroke:#424242;stroke-linecap:square;stroke-width:2.7;"/>
   </g>
   <g id="line2d_92">
    <path clip-path="url(#pc5b9fdb48c)" d="M 0 0 
" style="fill:none;stroke:#424242;stroke-linecap:square;stroke-width:2.7;"/>
   </g>
   <g id="line2d_93">
    <path clip-path="url(#pc5b9fdb48c)" d="M 0 0 
" style="fill:none;stroke:#424242;stroke-linecap:square;stroke-width:2.7;"/>
   </g>
   <g id="line2d_94">
    <path clip-path="url(#pc5b9fdb48c)" d="M 0 0 
" style="fill:none;stroke:#424242;stroke-linecap:square;stroke-width:2.7;"/>
   </g>
   <g id="line2d_95">
    <path clip-path="url(#pc5b9fdb48c)" d="M 0 0 
" style="fill:none;stroke:#424242;stroke-linecap:square;stroke-width:2.7;"/>
   </g>
   <g id="line2d_96">
    <path clip-path="url(#pc5b9fdb48c)" d="M 0 0 
" style="fill:none;stroke:#424242;stroke-linecap:square;stroke-width:2.7;"/>
   </g>
   <g id="line2d_97">
    <path clip-path="url(#pc5b9fdb48c)" d="M 0 0 
" style="fill:none;stroke:#424242;stroke-linecap:square;stroke-width:2.7;"/>
   </g>
   <g id="line2d_98">
    <path clip-path="url(#pc5b9fdb48c)" d="M 0 0 
" style="fill:none;stroke:#424242;stroke-linecap:square;stroke-width:2.7;"/>
   </g>
   <g id="line2d_99">
    <path clip-path="url(#pc5b9fdb48c)" d="M 0 0 
" style="fill:none;stroke:#424242;stroke-linecap:square;stroke-width:2.7;"/>
   </g>
   <g id="line2d_100">
    <path clip-path="url(#pc5b9fdb48c)" d="M 0 0 
" style="fill:none;stroke:#424242;stroke-linecap:square;stroke-width:2.7;"/>
   </g>
   <g id="line2d_101">
    <path clip-path="url(#pc5b9fdb48c)" d="M 0 0 
" style="fill:none;stroke:#424242;stroke-linecap:square;stroke-width:2.7;"/>
   </g>
   <g id="line2d_102">
    <path clip-path="url(#pc5b9fdb48c)" d="M 0 0 
" style="fill:none;stroke:#424242;stroke-linecap:square;stroke-width:2.7;"/>
   </g>
   <g id="line2d_103">
    <path clip-path="url(#pc5b9fdb48c)" d="M 0 0 
" style="fill:none;stroke:#424242;stroke-linecap:square;stroke-width:2.7;"/>
   </g>
   <g id="line2d_104">
    <path clip-path="url(#pc5b9fdb48c)" d="M 0 0 
" style="fill:none;stroke:#424242;stroke-linecap:square;stroke-width:2.7;"/>
   </g>
   <g id="line2d_105">
    <path clip-path="url(#pc5b9fdb48c)" d="M 0 0 
" style="fill:none;stroke:#424242;stroke-linecap:square;stroke-width:2.7;"/>
   </g>
   <g id="line2d_106">
    <path clip-path="url(#pc5b9fdb48c)" d="M 0 0 
" style="fill:none;stroke:#424242;stroke-linecap:square;stroke-width:2.7;"/>
   </g>
   <g id="line2d_107">
    <path clip-path="url(#pc5b9fdb48c)" d="M 0 0 
" style="fill:none;stroke:#424242;stroke-linecap:square;stroke-width:2.7;"/>
   </g>
   <g id="line2d_108">
    <path clip-path="url(#pc5b9fdb48c)" d="M 0 0 
" style="fill:none;stroke:#424242;stroke-linecap:square;stroke-width:2.7;"/>
   </g>
   <g id="line2d_109">
    <path clip-path="url(#pc5b9fdb48c)" d="M 0 0 
" style="fill:none;stroke:#424242;stroke-linecap:square;stroke-width:2.7;"/>
   </g>
   <g id="line2d_110">
    <path clip-path="url(#pc5b9fdb48c)" d="M 0 0 
" style="fill:none;stroke:#424242;stroke-linecap:square;stroke-width:2.7;"/>
   </g>
   <g id="line2d_111">
    <path clip-path="url(#pc5b9fdb48c)" d="M 0 0 
" style="fill:none;stroke:#424242;stroke-linecap:square;stroke-width:2.7;"/>
   </g>
   <g id="line2d_112">
    <path clip-path="url(#pc5b9fdb48c)" d="M 0 0 
" style="fill:none;stroke:#424242;stroke-linecap:square;stroke-width:2.7;"/>
   </g>
   <g id="line2d_113">
    <path clip-path="url(#pc5b9fdb48c)" d="M 0 0 
" style="fill:none;stroke:#424242;stroke-linecap:square;stroke-width:2.7;"/>
   </g>
   <g id="line2d_114">
    <path clip-path="url(#pc5b9fdb48c)" d="M 0 0 
" style="fill:none;stroke:#424242;stroke-linecap:square;stroke-width:2.7;"/>
   </g>
   <g id="line2d_115">
    <path clip-path="url(#pc5b9fdb48c)" d="M 0 0 
" style="fill:none;stroke:#424242;stroke-linecap:square;stroke-width:2.7;"/>
   </g>
   <g id="patch_92">
    <path d="M 135 630 
L 135 382.909091 
" style="fill:none;stroke:#000000;stroke-linecap:square;stroke-linejoin:miter;stroke-width:0.8;"/>
   </g>
   <g id="patch_93">
    <path d="M 972 630 
L 972 382.909091 
" style="fill:none;stroke:#000000;stroke-linecap:square;stroke-linejoin:miter;stroke-width:0.8;"/>
   </g>
   <g id="patch_94">
    <path d="M 135 630 
L 972 630 
" style="fill:none;stroke:#000000;stroke-linecap:square;stroke-linejoin:miter;stroke-width:0.8;"/>
   </g>
   <g id="patch_95">
    <path d="M 135 382.909091 
L 972 382.909091 
" style="fill:none;stroke:#000000;stroke-linecap:square;stroke-linejoin:miter;stroke-width:0.8;"/>
   </g>
   <g id="text_37">
    <!-- Didtribution plot for Deaths cases in Canada -->
    <g transform="translate(420.134063 376.909091)scale(0.12 -0.12)">
     <use xlink:href="#DejaVuSans-68"/>
     <use x="77.001953" xlink:href="#DejaVuSans-105"/>
     <use x="104.785156" xlink:href="#DejaVuSans-100"/>
     <use x="168.261719" xlink:href="#DejaVuSans-116"/>
     <use x="207.470703" xlink:href="#DejaVuSans-114"/>
     <use x="248.583984" xlink:href="#DejaVuSans-105"/>
     <use x="276.367188" xlink:href="#DejaVuSans-98"/>
     <use x="339.84375" xlink:href="#DejaVuSans-117"/>
     <use x="403.222656" xlink:href="#DejaVuSans-116"/>
     <use x="442.431641" xlink:href="#DejaVuSans-105"/>
     <use x="470.214844" xlink:href="#DejaVuSans-111"/>
     <use x="531.396484" xlink:href="#DejaVuSans-110"/>
     <use x="594.775391" xlink:href="#DejaVuSans-32"/>
     <use x="626.5625" xlink:href="#DejaVuSans-112"/>
     <use x="690.039062" xlink:href="#DejaVuSans-108"/>
     <use x="717.822266" xlink:href="#DejaVuSans-111"/>
     <use x="779.003906" xlink:href="#DejaVuSans-116"/>
     <use x="818.212891" xlink:href="#DejaVuSans-32"/>
     <use x="850" xlink:href="#DejaVuSans-102"/>
     <use x="885.205078" xlink:href="#DejaVuSans-111"/>
     <use x="946.386719" xlink:href="#DejaVuSans-114"/>
     <use x="987.5" xlink:href="#DejaVuSans-32"/>
     <use x="1019.287109" xlink:href="#DejaVuSans-68"/>
     <use x="1096.289062" xlink:href="#DejaVuSans-101"/>
     <use x="1157.8125" xlink:href="#DejaVuSans-97"/>
     <use x="1219.091797" xlink:href="#DejaVuSans-116"/>
     <use x="1258.300781" xlink:href="#DejaVuSans-104"/>
     <use x="1321.679688" xlink:href="#DejaVuSans-115"/>
     <use x="1373.779297" xlink:href="#DejaVuSans-32"/>
     <use x="1405.566406" xlink:href="#DejaVuSans-99"/>
     <use x="1460.546875" xlink:href="#DejaVuSans-97"/>
     <use x="1521.826172" xlink:href="#DejaVuSans-115"/>
     <use x="1573.925781" xlink:href="#DejaVuSans-101"/>
     <use x="1635.449219" xlink:href="#DejaVuSans-115"/>
     <use x="1687.548828" xlink:href="#DejaVuSans-32"/>
     <use x="1719.335938" xlink:href="#DejaVuSans-105"/>
     <use x="1747.119141" xlink:href="#DejaVuSans-110"/>
     <use x="1810.498047" xlink:href="#DejaVuSans-32"/>
     <use x="1842.285156" xlink:href="#DejaVuSans-67"/>
     <use x="1912.109375" xlink:href="#DejaVuSans-97"/>
     <use x="1973.388672" xlink:href="#DejaVuSans-110"/>
     <use x="2036.767578" xlink:href="#DejaVuSans-97"/>
     <use x="2098.046875" xlink:href="#DejaVuSans-100"/>
     <use x="2161.523438" xlink:href="#DejaVuSans-97"/>
    </g>
   </g>
  </g>
 </g>
 <defs>
  <clipPath id="p6f74e96c42">
   <rect height="247.090909" width="837" x="135" y="86.4"/>
  </clipPath>
  <clipPath id="pc5b9fdb48c">
   <rect height="247.090909" width="837" x="135" y="382.909091"/>
  </clipPath>
 </defs>
</svg>
